<?xml version="1.0" encoding="utf-8"?>
<!-- Generator: Adobe Illustrator 19.0.0, SVG Export Plug-In . SVG Version: 6.00 Build 0)  -->
<svg version="1.1" id="Layer_1" xmlns="http://www.w3.org/2000/svg" xmlns:xlink="http://www.w3.org/1999/xlink" x="0px" y="0px"
	 viewBox="0 0 500 500" style="enable-background:new 0 0 500 500;" xml:space="preserve">
<style type="text/css">
	.st0{fill:#34495E;}
	.st1{opacity:0.25;}
	.st2{fill:#FFFFFF;}
	.st3{fill:#E1EFFA;}
	.st4{fill:#DE3F18;}
	.st5{opacity:0.15;}
	.st6{fill:#FFFD00;}
	.st7{fill:#62C32D;}
	.st8{fill:#4DC7F8;}
	.st9{fill:#2A445E;}
	.st10{fill:#20364D;}
</style>
<rect id="XMLID_92_" x="0" y="0" class="st0" width="500" height="500"/>
<g id="gamepad">
	<path id="XMLID_89_" class="st1" d="M367.2,207L367.2,207H355c-0.3,0-0.6,0-0.9,0c-0.3,0-0.6,0-0.9,0h-63.8v-11.3h-67V207h-74.5v0
		c-0.6,0-1.3-0.1-1.9-0.1c-45.1,0-81.6,36.5-81.6,81.6c0,45.1,36.5,81.6,81.6,81.6c29.4,0,55.1-15.6,69.4-38.9h69.3
		c14.4,23.3,40,38.9,69.4,38.9c45.1,0,81.6-36.5,81.6-81.6C435.7,248,406,213.3,367.2,207z"/>
	<g id="XMLID_41_">
		<path id="XMLID_88_" class="st2" d="M367.2,196.2L367.2,196.2H355c-0.3,0-0.6,0-0.9,0c-0.3,0-0.6,0-0.9,0h-63.8V185h-67v11.3
			h-74.5v0c-0.6,0-1.3-0.1-1.9-0.1c-45.1,0-81.6,36.5-81.6,81.6c0,45.1,36.5,81.6,81.6,81.6c29.4,0,55.1-15.6,69.4-38.9h69.3
			c14.4,23.3,40,38.9,69.4,38.9c45.1,0,81.6-36.5,81.6-81.6C435.7,237.2,406,202.5,367.2,196.2z"/>
		<path id="XMLID_87_" class="st3" d="M421.3,231.7c0.4,3.1,0.6,6.3,0.6,9.5c0,45.1-36.5,81.6-81.6,81.6
			c-29.4,0-55.1-15.6-69.4-38.9h-69.3c-14.4,23.3-40,38.9-69.4,38.9c-27.9,0-52.5-14-67.2-35.4c4.8,40.5,39.2,72,81,72
			c29.4,0,55.1-15.6,69.4-38.9h69.3c14.4,23.3,40,38.9,69.4,38.9c45.1,0,81.6-36.5,81.6-81.6C435.7,260.6,430.4,244.8,421.3,231.7z"
			/>
		<g id="XMLID_82_">
			<path id="XMLID_86_" class="st4" d="M344.9,249.7c0,9.3-7.6,16.9-16.9,16.9c-9.3,0-16.9-7.6-16.9-16.9c0-9.3,7.6-16.9,16.9-16.9
				C337.4,232.8,344.9,240.3,344.9,249.7z"/>
			<path id="XMLID_83_" class="st5" d="M328.1,261.8c-8.5,0-15.5-6.3-16.7-14.5c-0.1,0.8-0.2,1.6-0.2,2.4c0,9.3,7.6,16.9,16.9,16.9
				c9.3,0,16.9-7.6,16.9-16.9c0-0.8-0.1-1.6-0.2-2.4C343.6,255.5,336.6,261.8,328.1,261.8z"/>
		</g>
		<g id="XMLID_77_">
			<path id="XMLID_81_" class="st6" d="M401.2,249.7c0,9.3-7.6,16.9-16.9,16.9c-9.3,0-16.9-7.6-16.9-16.9c0-9.3,7.6-16.9,16.9-16.9
				C393.6,232.8,401.2,240.3,401.2,249.7z"/>
			<path id="XMLID_78_" class="st5" d="M384.3,261.8c-8.5,0-15.5-6.3-16.7-14.5c-0.1,0.8-0.2,1.6-0.2,2.4c0,9.3,7.6,16.9,16.9,16.9
				c9.3,0,16.9-7.6,16.9-16.9c0-0.8-0.1-1.6-0.2-2.4C399.9,255.5,392.8,261.8,384.3,261.8z"/>
		</g>
		<g id="XMLID_72_">
			<path id="XMLID_76_" class="st7" d="M344.9,305.9c0,9.3-7.6,16.9-16.9,16.9c-9.3,0-16.9-7.6-16.9-16.9c0-9.3,7.6-16.9,16.9-16.9
				C337.4,289,344.9,296.6,344.9,305.9z"/>
			<path id="XMLID_73_" class="st5" d="M328.1,318.1c-8.5,0-15.5-6.3-16.7-14.5c-0.1,0.8-0.2,1.6-0.2,2.4c0,9.3,7.6,16.9,16.9,16.9
				c9.3,0,16.9-7.6,16.9-16.9c0-0.8-0.1-1.6-0.2-2.4C343.6,311.8,336.6,318.1,328.1,318.1z"/>
		</g>
		<g id="XMLID_67_">
			<path id="XMLID_71_" class="st8" d="M401.2,305.9c0,9.3-7.6,16.9-16.9,16.9c-9.3,0-16.9-7.6-16.9-16.9c0-9.3,7.6-16.9,16.9-16.9
				C393.6,289,401.2,296.6,401.2,305.9z"/>
			<path id="XMLID_68_" class="st5" d="M384.3,318.1c-8.5,0-15.5-6.3-16.7-14.5c-0.1,0.8-0.2,1.6-0.2,2.4c0,9.3,7.6,16.9,16.9,16.9
				c9.3,0,16.9-7.6,16.9-16.9c0-0.8-0.1-1.6-0.2-2.4C399.9,311.8,392.8,318.1,384.3,318.1z"/>
		</g>
		<g id="XMLID_65_">
			<path id="XMLID_66_" class="st2" d="M260.8,185h-9.4V77.7c0-9.3,2.5-17.3,7.2-23.1c4.4-5.4,10.7-8.5,17.1-8.5
				c11.5,0,24,9.9,24,31.5v54.9c0,16,7.9,23.3,15.3,23.3c7.3,0,15.2-7.3,15.2-23.3V0h9.4v132.6c0,22.5-12.7,32.7-24.6,32.7
				c-12.3,0-24.7-11.2-24.7-32.7V77.7c0-15.2-7.6-22.1-14.6-22.1c-7.2,0-15,6.9-15,22.1V185z"/>
		</g>
		<g id="XMLID_44_">
			<g id="XMLID_62_">
				<polygon id="XMLID_64_" class="st9" points="172.4,267 149.9,267 149.9,244.5 127.4,244.5 127.4,267 104.9,267 104.9,289.5 
					127.4,289.5 127.4,312 149.9,312 149.9,289.5 172.4,289.5 				"/>
				<polygon id="XMLID_63_" class="st10" points="149.9,312 149.9,289.5 172.4,289.5 172.4,267 149.9,267 149.9,244.5 138.6,244.5 
					138.6,312 				"/>
			</g>
			<g id="XMLID_45_">
				<polygon id="XMLID_61_" class="st2" points="134,258.2 138.6,250.1 143.3,258.2 				"/>
				<polygon id="XMLID_60_" class="st2" points="143.3,298.4 138.6,306.5 134,298.4 				"/>
				<polygon id="XMLID_58_" class="st2" points="158.7,273.6 166.9,278.3 158.7,283 				"/>
				<polygon id="XMLID_46_" class="st2" points="118.6,283 110.4,278.3 118.6,273.6 				"/>
			</g>
		</g>
		<rect id="XMLID_43_" x="229.6" y="254.1" class="st9" width="19.7" height="4.1"/>
		<rect id="XMLID_42_" x="262.8" y="254.1" class="st9" width="19.7" height="4.1"/>
	</g>
</g>
</svg>
