<svg xmlns="http://www.w3.org/2000/svg" xmlns:xlink="http://www.w3.org/1999/xlink" viewBox="0 0 500.57 500.57"><defs><radialGradient id="3900a24b-02d7-4845-bc9b-2d5cf6d438f4" cx="249.79" cy="249.8" r="352.53" gradientTransform="translate(0.47 0.46)" gradientUnits="userSpaceOnUse"><stop offset="0" stop-color="#fff" stop-opacity="0"/><stop offset="0.67" stop-color="#979897" stop-opacity="0.14"/><stop offset="1" stop-color="#1d1e1c" stop-opacity="0.3"/></radialGradient><radialGradient id="dfb87dd1-484b-4d16-88c3-ef0962699091" cx="250" cy="414.91" r="128.54" gradientTransform="translate(0.29 386.33) scale(1 0.07)" gradientUnits="userSpaceOnUse"><stop offset="0" stop-color="#000100"/><stop offset="1" stop-color="#000100" stop-opacity="0"/></radialGradient><clipPath id="60ac228c-fff8-4d24-9a3b-a3f5e6afe716" transform="translate(0.29 0.29)"><path d="M76.05,253.1V104.52h350V256.17a15,15,0,0,0-5.7-1.12H359.72l-11.6-43a15.11,15.11,0,0,0-14.56-11.16l-0.68,0a15,15,0,0,0-14.18,12.46l-3.62,20.63a15.19,15.19,0,0,0-12.35-7.44h-0.65a15.07,15.07,0,0,0-13.87,9.14l-5.41,12.62-8.57-35.84a15,15,0,0,0-14.65-11.57h-0.48a15.14,15.14,0,0,0-14.4,12.47l-3.77,21.49A15.17,15.17,0,0,0,229,228.12h-0.66a15.07,15.07,0,0,0-13.86,9.14l-6.79,15.85H76.05Zm344.33,32.12H348.16a15.09,15.09,0,0,1-10.68-4.43l-3,17.28a15.06,15.06,0,0,1-13.8,12.44c-0.36,0-.71,0-1.06,0a15.05,15.05,0,0,1-14.35-10.42l-6.17-19a15.07,15.07,0,0,1-8.7,2.76H272.2a15.06,15.06,0,0,1-8.79-2.81l-3,16.95a15.07,15.07,0,0,1-13.77,12.44c-0.38,0-.74,0-1.09,0a15.05,15.05,0,0,1-14.33-10.37l-6.2-18.83a15.07,15.07,0,0,1-7.39,1.93H76.05V395.48h350V284.1A15,15,0,0,1,420.38,285.22Z" fill="none"/></clipPath><linearGradient id="052a9e4f-74c6-4c4e-aef9-a7a56259da75" x1="250" y1="111.16" x2="250" y2="392.54" gradientUnits="userSpaceOnUse"><stop offset="0" stop-color="#ec1c24"/><stop offset="1" stop-color="#c0272d"/></linearGradient><linearGradient id="7f795e87-66d9-4583-8ad2-582ba2dba7ea" x1="250" y1="117.04" x2="250" y2="169.57" gradientUnits="userSpaceOnUse"><stop offset="0" stop-color="#fff"/><stop offset="1" stop-color="#fff" stop-opacity="0"/></linearGradient></defs><title>18169-NRKSEJ</title><g style="isolation:isolate"><g id="c7c1b6b8-3702-4dcc-a04d-6e99d6195cb6" data-name="Background"><rect width="500.57" height="500.57" fill="url(#3900a24b-02d7-4845-bc9b-2d5cf6d438f4)" style="mix-blend-mode:multiply"/><ellipse cx="250.29" cy="415.19" rx="130.08" ry="8.54" opacity="0.1" fill="url(#dfb87dd1-484b-4d16-88c3-ef0962699091)"/></g><g id="98ca288c-2c9e-4d78-8947-d017e69cd7f8" data-name="Objects"><path d="M245.58,301.15a5.7,5.7,0,0,1-5.41-3.92l-12.49-37.94-4.77,11.14a5.7,5.7,0,0,1-5.24,3.45h-218v-11.4h214.2l9.23-21.54a5.7,5.7,0,0,1,10.65.46l10.1,30.69,10-57.16a5.7,5.7,0,0,1,11.16-.34l11.61,48.54h9.92l10.2-23.81a5.7,5.7,0,0,1,10.66.48l10.45,32.13,10-57a5.7,5.7,0,0,1,11.12-.5l13.47,50H500.29v11.4H348.16a5.7,5.7,0,0,1-5.5-4.22l-7.93-29.42-9.52,54.24a5.7,5.7,0,0,1-11,.78l-12.84-39.47-5.72,13.34a5.7,5.7,0,0,1-5.24,3.45H272.2a5.7,5.7,0,0,1-5.54-4.37L260.4,244l-9.2,52.43a5.7,5.7,0,0,1-5.2,4.7h-0.41Z" transform="translate(0.29 0.29)" fill="#c0272d"/><g clip-path="url(#60ac228c-fff8-4d24-9a3b-a3f5e6afe716)"><path d="M334.39,109.1a86.06,86.06,0,0,0-70.86,37.21s-5.24,7.85-13.53,7.85-13.53-7.85-13.53-7.85A86,86,0,0,0,85.73,226.83C109.81,301.62,217.55,389.58,250,392.78c32.45-3.2,140.19-91.16,164.27-165.95A85.91,85.91,0,0,0,334.39,109.1h0Zm0,0" transform="translate(0.29 0.29)" fill="url(#052a9e4f-74c6-4c4e-aef9-a7a56259da75)"/><path d="M407.05,170.85A76.64,76.64,0,0,0,271.28,151.6c-1.09,1.6-8.61,11.94-21.28,11.94s-20.19-10.34-21.28-11.94A76.64,76.64,0,0,0,92.95,170.85H407.05Z" transform="translate(0.29 0.29)" opacity="0.5" fill="url(#7f795e87-66d9-4583-8ad2-582ba2dba7ea)"/></g></g></g></svg>