<svg xmlns="http://www.w3.org/2000/svg" xmlns:xlink="http://www.w3.org/1999/xlink" viewBox="0 0 500 500"><defs><clipPath id="d99de3fa-d9fb-4b0a-9d1d-c1ce9d0f21bf"><rect width="500" height="500" fill="none"/></clipPath><clipPath id="278c9502-2c10-4d9f-a6d7-6bbd90cc09ce"><polygon id="e342b5cf-51a3-44a7-983e-b2536b229eb5" data-name="&lt;Clipping Path&gt;" points="298.88 175.94 200 150.31 200 150.21 120 177.72 120 356.33 200 328.96 200 328.96 298.88 354.06 379 327.28 379 148.67 298.88 175.94" fill="#f4e9d3"/></clipPath></defs><title>12387-NO7515</title><g style="isolation:isolate"><g id="571de7b8-ddd0-48de-8b2c-fba19dcd50e2" data-name="Background"><rect width="500" height="500" fill="#dbf2ee"/><g clip-path="url(#d99de3fa-d9fb-4b0a-9d1d-c1ce9d0f21bf)"><polygon points="299.44 163.13 200.59 138.13 108 169.38 108 374.38 200.56 343.13 299.41 368.13 392 336.88 392 131.88 299.44 163.13" fill="#c1e0dc"/><polygon points="299.62 163.61 201.18 138.61 109 169.86 109 374.86 201.24 343.61 299.75 368.61 392 337.36 392 132.36 299.62 163.61" fill="#c1e0dc"/><polygon points="299.8 164.1 201.27 139.1 109 170.35 109 375.35 201.42 344.1 299.83 369.1 392 337.85 392 132.85 299.8 164.1" fill="#c1e0dc"/><polygon points="300.47 164.59 201.61 139.59 109 170.84 109 375.83 201.6 344.58 300.42 369.58 393 338.33 393 133.34 300.47 164.59" fill="#c1e0dc"/><polygon points="300.65 165.07 201.7 140.07 109 171.32 109 376.32 201.78 345.07 300.51 370.07 393 338.82 393 133.82 300.65 165.07" fill="#c2e0dc"/><polygon points="301.33 165.56 202.54 140.56 110 171.81 110 376.81 202.46 345.56 301.35 370.56 394 339.31 394 134.31 301.33 165.56" fill="#c2e0dc"/><polygon points="301.51 166.04 202.63 141.04 110 172.29 110 377.3 202.63 346.05 301.44 371.05 394 339.8 394 134.79 301.51 166.04" fill="#c2e1dd"/><polygon points="301.69 166.53 203.22 141.53 111 172.78 111 377.78 203.31 346.53 301.78 371.53 394 340.28 394 135.28 301.69 166.53" fill="#c2e1dd"/><polygon points="302.37 167.02 203.56 142.02 111 173.27 111 378.27 203.49 347.02 302.37 372.02 395 340.77 395 135.77 302.37 167.02" fill="#c2e1dd"/><polygon points="302.55 167.5 203.65 142.5 111 173.75 111 378.75 203.67 347.5 302.46 372.5 395 341.25 395 136.25 302.55 167.5" fill="#c2e1dd"/><polygon points="303.23 167.99 204.49 142.99 112 174.24 112 379.24 204.35 347.99 303.3 372.99 396 341.74 396 136.74 303.23 167.99" fill="#c2e1dd"/><polygon points="303.4 168.48 204.58 143.48 112 174.73 112 379.73 204.53 348.48 303.39 373.48 396 342.23 396 137.23 303.4 168.48" fill="#c2e1dd"/><polygon points="303.58 168.97 204.67 143.97 112 175.22 112 380.21 204.71 348.96 303.48 373.96 396 342.71 396 137.72 303.58 168.97" fill="#c3e1dd"/><polygon points="303.76 169.45 204.76 144.45 112 175.7 112 380.7 204.89 349.45 303.57 374.45 396 343.2 396 138.2 303.76 169.45" fill="#c3e1dd"/><polygon points="304.44 169.94 205.59 144.94 113 176.19 113 381.19 205.57 349.94 304.41 374.94 397 343.69 397 138.69 304.44 169.94" fill="#c3e1dd"/><polygon points="304.62 170.43 206.19 145.43 114 176.68 114 381.68 206.24 350.43 304.75 375.43 397 344.18 397 139.18 304.62 170.43" fill="#c3e1dd"/><polygon points="304.8 170.91 206.27 145.91 114 177.16 114 382.16 206.42 350.91 304.84 375.91 397 344.66 397 139.66 304.8 170.91" fill="#c3e1dd"/><polygon points="305.48 171.4 206.61 146.4 114 177.65 114 382.65 206.6 351.4 305.43 376.4 398 345.15 398 140.15 305.48 171.4" fill="#c3e2de"/><polygon points="305.66 171.88 206.7 146.88 114 178.13 114 383.13 206.78 351.88 305.51 376.88 398 345.63 398 140.63 305.66 171.88" fill="#c3e2de"/><polygon points="306.33 172.37 207.54 147.37 115 178.62 115 383.62 207.46 352.37 306.36 377.37 399 346.12 399 141.12 306.33 172.37" fill="#c3e2de"/><polygon points="306.51 172.86 207.63 147.86 115 179.11 115 384.11 207.64 352.86 306.44 377.86 399 346.61 399 141.61 306.51 172.86" fill="#c4e2de"/><polygon points="306.69 173.34 208.22 148.34 116 179.59 116 384.59 208.32 353.34 306.78 378.34 399 347.09 399 142.09 306.69 173.34" fill="#c4e2de"/><polygon points="307.37 173.83 208.56 148.83 116 180.08 116 385.08 208.5 353.83 307.37 378.83 400 347.58 400 142.58 307.37 173.83" fill="#c4e2de"/><polygon points="307.55 174.32 208.65 149.32 116 180.57 116 385.57 208.68 354.32 307.46 379.32 400 348.07 400 143.07 307.55 174.32" fill="#c4e2de"/><polygon points="308.23 174.8 209.49 149.8 117 181.05 117 386.05 209.35 354.8 308.3 379.8 401 348.55 401 143.55 308.23 174.8" fill="#c4e2de"/><polygon points="308.41 175.29 209.58 150.29 117 181.54 117 386.54 209.53 355.29 308.39 380.29 401 349.04 401 144.04 308.41 175.29" fill="#c4e2de"/><polygon points="308.59 175.78 209.67 150.78 117 182.03 117 387.03 209.71 355.78 308.48 380.78 401 349.53 401 144.53 308.59 175.78" fill="#c4e2de"/><polygon points="308.76 176.26 209.76 151.26 117 182.51 117 387.51 209.89 356.26 308.57 381.26 401 350.01 401 145.01 308.76 176.26" fill="#c4e2de"/><polygon points="309.44 176.75 210.6 151.75 118 183 118 388 210.57 356.75 309.41 381.75 402 350.5 402 145.5 309.44 176.75" fill="#c5e3df"/><polygon points="309.62 177.24 211.19 152.24 119 183.49 119 388.49 211.25 357.24 309.75 382.24 402 350.99 402 145.99 309.62 177.24" fill="#c5e3df"/><polygon points="309.8 177.72 211.28 152.72 119 183.97 119 388.97 211.43 357.72 309.84 382.72 402 351.47 402 146.47 309.8 177.72" fill="#c5e3df"/><polygon points="310.48 178.21 211.62 153.21 119 184.46 119 389.46 211.6 358.21 310.43 383.21 403 351.96 403 146.96 310.48 178.21" fill="#c5e3df"/><polygon points="310.66 178.7 211.7 153.7 119 184.95 119 389.95 211.78 358.7 310.52 383.7 403 352.45 403 147.45 310.66 178.7" fill="#c5e3df"/><polygon points="311.34 179.18 212.54 154.18 120 185.43 120 390.43 212.46 359.18 311.36 384.18 404 352.93 404 147.93 311.34 179.18" fill="#c5e3df"/><polygon points="311.52 179.67 212.63 154.67 120 185.92 120 390.92 212.64 359.67 311.45 384.67 404 353.42 404 148.42 311.52 179.67" fill="#c5e3df"/><polygon points="311.69 180.16 213.22 155.16 121 186.41 121 391.41 213.32 360.16 311.79 385.16 404 353.91 404 148.91 311.69 180.16" fill="#c6e3df"/><polygon points="312.37 180.64 213.56 155.64 121 186.89 121 391.89 213.5 360.64 312.38 385.64 405 354.39 405 149.39 312.37 180.64" fill="#c6e3df"/><polygon points="312.55 181.13 213.65 156.13 121 187.38 121 392.38 213.68 361.13 312.46 386.13 405 354.88 405 149.88 312.55 181.13" fill="#c6e3df"/><polygon points="313.23 181.62 214.49 156.62 122 187.87 122 392.87 214.36 361.62 313.3 386.62 406 355.37 406 150.37 313.23 181.62" fill="#c6e3df"/><polygon points="313.41 182.1 214.58 157.1 122 188.35 122 393.35 214.54 362.1 313.39 387.1 406 355.85 406 150.85 313.41 182.1" fill="#c6e3df"/><polygon points="313.59 182.59 214.67 157.59 122 188.84 122 393.84 214.71 362.59 313.48 387.59 406 356.34 406 151.34 313.59 182.59" fill="#c6e4e0"/><polygon points="313.77 183.08 214.76 158.08 122 189.33 122 394.33 214.89 363.08 313.57 388.08 406 356.83 406 151.83 313.77 183.08" fill="#c6e4e0"/><polygon points="314.45 183.56 215.6 158.56 123 189.81 123 394.81 215.57 363.56 314.41 388.56 407 357.31 407 152.31 314.45 183.56" fill="#c6e4e0"/><polygon points="314.63 184.05 216.19 159.05 124 190.3 124 395.3 216.25 364.05 314.75 389.05 407 357.8 407 152.8 314.63 184.05" fill="#c7e4e0"/><polygon points="314.8 184.54 216.28 159.54 124 190.79 124 395.79 216.43 364.54 314.84 389.54 407 358.29 407 153.29 314.8 184.54" fill="#c7e4e0"/><polygon points="315.48 185.02 216.62 160.02 124 191.27 124 396.27 216.61 365.02 315.43 390.02 408 358.77 408 153.77 315.48 185.02" fill="#c7e4e0"/><polygon points="315.66 185.51 216.71 160.51 124 191.76 124 396.76 216.79 365.51 315.52 390.51 408 359.26 408 154.26 315.66 185.51" fill="#c7e4e0"/><polygon points="316.34 186 217.54 161 125 192.25 125 397.25 217.47 366 316.36 391 409 359.75 409 154.75 316.34 186" fill="#c7e4e0"/><polygon points="316.52 186.48 217.63 161.48 125 192.73 125 397.73 217.65 366.48 316.45 391.48 409 360.23 409 155.23 316.52 186.48" fill="#c7e4e0"/><polygon points="316.7 186.97 218.22 161.97 126 193.22 126 398.22 218.32 366.97 316.79 391.97 409 360.72 409 155.72 316.7 186.97" fill="#c7e4e0"/><polygon points="317.38 187.46 218.56 162.46 126 193.71 126 398.71 218.5 367.46 317.38 392.46 410 361.21 410 156.21 317.38 187.46" fill="#c7e4e0"/><polygon points="317.56 187.94 218.65 162.94 126 194.19 126 399.19 218.68 367.94 317.47 392.94 410 361.69 410 156.69 317.56 187.94" fill="#c8e5e1"/><polygon points="318.24 188.43 219.49 163.43 127 194.68 127 399.68 219.36 368.43 318.31 393.43 411 362.18 411 157.18 318.24 188.43" fill="#c8e5e1"/><polygon points="318.41 188.92 219.58 163.92 127 195.17 127 400.17 219.54 368.92 318.39 393.92 411 362.67 411 157.67 318.41 188.92" fill="#c8e5e1"/><polygon points="318.59 189.4 219.67 164.4 127 195.65 127 400.65 219.72 369.4 318.48 394.4 411 363.15 411 158.15 318.59 189.4" fill="#c8e5e1"/><polygon points="318.77 189.89 219.76 164.89 127 196.14 127 401.14 219.9 369.89 318.57 394.89 411 363.64 411 158.64 318.77 189.89" fill="#c8e5e1"/><polygon points="319.45 190.38 220.6 165.38 128 196.63 128 401.63 220.57 370.38 319.41 395.38 412 364.13 412 159.13 319.45 190.38" fill="#c8e5e1"/><polygon points="319.63 190.86 221.19 165.86 129 197.11 129 402.11 221.25 370.86 319.75 395.86 412 364.61 412 159.61 319.63 190.86" fill="#c8e5e1"/><polygon points="319.81 191.35 221.28 166.35 129 197.6 129 402.6 221.43 371.35 319.84 396.35 412 365.1 412 160.1 319.81 191.35" fill="#c9e5e1"/><polygon points="320.49 191.84 221.62 166.84 129 198.09 129 403.09 221.61 371.84 320.43 396.84 413 365.59 413 160.59 320.49 191.84" fill="#c9e5e1"/><polygon points="320.67 192.32 221.71 167.32 129 198.57 129 403.57 221.79 372.32 320.52 397.32 413 366.07 413 161.07 320.67 192.32" fill="#c9e5e1"/><polygon points="321.34 192.81 222.55 167.81 130 199.06 130 404.06 222.47 372.81 321.36 397.81 414 366.56 414 161.56 321.34 192.81" fill="#c9e5e1"/><polygon points="321.52 193.3 222.64 168.3 130 199.55 130 404.55 222.65 373.3 321.45 398.3 414 367.05 414 162.05 321.52 193.3" fill="#c9e6e2"/><polygon points="321.7 193.78 223.23 168.78 131 200.03 131 405.03 223.33 373.78 321.79 398.78 414 367.53 414 162.53 321.7 193.78" fill="#c9e6e2"/><polygon points="322.38 194.27 223.56 169.27 131 200.52 131 405.52 223.5 374.27 322.38 399.27 415 368.02 415 163.02 322.38 194.27" fill="#c9e6e2"/><polygon points="322.56 194.76 223.66 169.76 131 201.01 131 406.01 223.68 374.76 322.47 399.76 415 368.51 415 163.51 322.56 194.76" fill="#c9e6e2"/><polygon points="323.24 195.24 224.49 170.24 132 201.49 132 406.49 224.36 375.24 323.31 400.24 416 368.99 416 163.99 323.24 195.24" fill="#cae6e2"/><polygon points="323.42 195.73 224.58 170.73 132 201.98 132 406.98 224.54 375.73 323.4 400.73 416 369.48 416 164.48 323.42 195.73" fill="#cae6e2"/><polygon points="323.6 196.22 224.67 171.22 132 202.47 132 407.47 224.72 376.22 323.49 401.22 416 369.97 416 164.97 323.6 196.22" fill="#cae6e2"/><polygon points="323.77 196.7 224.76 171.7 132 202.95 132 407.95 224.9 376.7 323.57 401.7 416 370.45 416 165.45 323.77 196.7" fill="#cae6e2"/><polygon points="324.45 197.19 225.6 172.19 133 203.44 133 408.44 225.58 377.19 324.41 402.19 417 370.94 417 165.94 324.45 197.19" fill="#cae6e2"/><polygon points="324.63 197.68 226.19 172.68 134 203.93 134 408.93 226.26 377.68 324.75 402.68 417 371.43 417 166.43 324.63 197.68" fill="#cae6e2"/><polygon points="324.81 198.16 226.28 173.16 134 204.41 134 409.41 226.44 378.16 324.84 403.16 417 371.91 417 166.91 324.81 198.16" fill="#cae6e2"/><polygon points="325.49 198.65 226.62 173.65 134 204.9 134 409.9 226.62 378.65 325.43 403.65 418 372.4 418 167.4 325.49 198.65" fill="#cae7e3"/><polygon points="325.67 199.14 226.71 174.14 134 205.39 134 410.39 226.79 379.14 325.52 404.14 418 372.89 418 167.89 325.67 199.14" fill="#cbe7e3"/><polygon points="326.35 199.62 227.55 174.62 135 205.87 135 410.87 227.47 379.62 326.36 404.62 419 373.37 419 168.37 326.35 199.62" fill="#cbe7e3"/><polygon points="326.53 200.11 227.64 175.11 135 206.36 135 411.36 227.65 380.11 326.45 405.11 419 373.86 419 168.86 326.53 200.11" fill="#cbe7e3"/><polygon points="326.7 200.6 228.23 175.6 136 206.85 136 411.85 228.33 380.6 326.79 405.6 419 374.35 419 169.35 326.7 200.6" fill="#cbe7e3"/><polygon points="327.38 201.08 228.57 176.08 136 207.33 136 412.33 228.51 381.08 327.38 406.08 420 374.83 420 169.83 327.38 201.08" fill="#cbe7e3"/><polygon points="327.56 201.57 228.66 176.57 136 207.82 136 412.82 228.69 381.57 327.47 406.57 420 375.32 420 170.32 327.56 201.57" fill="#cbe7e3"/><polygon points="328.24 202.06 229.5 177.06 137 208.31 137 413.31 229.37 382.06 328.31 407.06 421 375.81 421 170.81 328.24 202.06" fill="#cbe7e3"/><polygon points="328.42 202.54 229.59 177.54 137 208.79 137 413.79 229.54 382.54 328.4 407.54 421 376.29 421 171.29 328.42 202.54" fill="#cbe7e3"/><polygon points="328.6 203.03 229.67 178.03 137 209.28 137 414.28 229.72 383.03 328.49 408.03 421 376.78 421 171.78 328.6 203.03" fill="#cce7e3"/><polygon points="328.78 203.52 229.76 178.52 137 209.77 137 414.77 229.9 383.52 328.58 408.52 421 377.27 421 172.27 328.78 203.52" fill="#cce7e3"/><polygon points="329.46 204 230.6 179 138 210.25 138 415.25 230.58 384 329.42 409 422 377.75 422 172.75 329.46 204" fill="#cce8e4"/><polygon points="329.63 204.49 231.19 179.49 139 210.74 139 415.74 231.26 384.49 329.75 409.49 422 378.24 422 173.24 329.63 204.49" fill="#cce8e4"/><polygon points="329.81 204.98 231.28 179.98 139 211.23 139 416.23 231.44 384.98 329.84 409.98 422 378.73 422 173.73 329.81 204.98" fill="#cce8e4"/><polygon points="330.49 205.46 231.62 180.46 139 211.71 139 416.71 231.62 385.46 330.43 410.46 423 379.21 423 174.21 330.49 205.46" fill="#cce8e4"/><polygon points="330.67 205.95 231.71 180.95 139 212.2 139 417.2 231.8 385.95 330.52 410.95 423 379.7 423 174.7 330.67 205.95" fill="#cce8e4"/><polygon points="331.35 206.44 232.55 181.44 140 212.69 140 417.69 232.47 386.44 331.36 411.44 424 380.19 424 175.19 331.35 206.44" fill="#cde8e4"/><polygon points="331.53 206.92 232.64 181.92 140 213.17 140 418.17 232.65 386.92 331.45 411.92 424 380.67 424 175.67 331.53 206.92" fill="#cde8e4"/><polygon points="331.71 207.41 233.23 182.41 141 213.66 141 418.66 233.33 387.41 331.79 412.41 424 381.16 424 176.16 331.71 207.41" fill="#cde8e4"/><polygon points="332.39 207.9 233.57 182.9 141 214.15 141 419.14 233.51 387.89 332.38 412.89 425 381.64 425 176.65 332.39 207.9" fill="#cde8e4"/><polygon points="332.56 208.38 233.66 183.38 141 214.63 141 419.63 233.69 388.38 332.47 413.38 425 382.13 425 177.13 332.56 208.38" fill="#cde8e4"/><polygon points="333.24 208.87 234.5 183.87 142 215.12 142 420.12 234.37 388.87 333.31 413.87 426 382.62 426 177.62 333.24 208.87" fill="#cde8e4"/><polygon points="333.42 209.35 234.59 184.35 142 215.6 142 420.61 234.55 389.36 333.4 414.36 426 383.11 426 178.1 333.42 209.35" fill="#cde9e5"/><polygon points="333.6 209.84 234.68 184.84 142 216.09 142 421.09 234.73 389.84 333.49 414.84 426 383.59 426 178.59 333.6 209.84" fill="#cde9e5"/><polygon points="333.78 210.33 234.76 185.33 142 216.58 142 421.58 234.91 390.33 333.58 415.33 426 384.08 426 179.08 333.78 210.33" fill="#cee9e5"/><polygon points="334.46 210.81 235.6 185.81 143 217.06 143 422.06 235.58 390.81 334.42 415.81 427 384.56 427 179.56 334.46 210.81" fill="#cee9e5"/><polygon points="334.64 211.3 236.19 186.3 144 217.55 144 422.55 236.26 391.3 334.76 416.3 427 385.05 427 180.05 334.64 211.3" fill="#cee9e5"/><polygon points="334.82 211.79 236.28 186.79 144 218.04 144 423.04 236.44 391.79 334.85 416.79 427 385.54 427 180.54 334.82 211.79" fill="#cee9e5"/><polygon points="335.5 212.28 236.62 187.28 144 218.53 144 423.52 236.62 392.27 335.44 417.27 428 386.02 428 181.03 335.5 212.28" fill="#cee9e5"/><polygon points="335.68 212.76 236.71 187.76 144 219.01 144 424.01 236.8 392.76 335.52 417.76 428 386.51 428 181.51 335.68 212.76" fill="#cee9e5"/><polygon points="336.35 213.25 237.55 188.25 145 219.5 145 424.5 237.48 393.25 336.36 418.25 429 387 429 182 336.35 213.25" fill="#cee9e5"/><polygon points="336.53 213.74 238.14 188.74 146 219.99 146 424.99 238.16 393.74 336.7 418.74 429 387.49 429 182.49 336.53 213.74" fill="#cee9e5"/><polygon points="336.71 214.22 238.23 189.22 146 220.47 146 425.47 238.34 394.22 336.79 419.22 429 387.97 429 182.97 336.71 214.22" fill="#cfe9e5"/><polygon points="337.39 214.71 238.57 189.71 146 220.96 146 425.96 238.51 394.71 337.38 419.71 430 388.46 430 183.46 337.39 214.71" fill="#cfe9e5"/><polygon points="337.57 215.19 238.66 190.19 146 221.44 146 426.44 238.69 395.19 337.47 420.19 430 388.94 430 183.94 337.57 215.19" fill="#cfeae6"/><polygon points="338.25 215.68 239.5 190.68 147 221.93 147 426.93 239.37 395.68 338.31 420.68 431 389.43 431 184.43 338.25 215.68" fill="#cfeae6"/><polygon points="338.43 216.17 239.59 191.17 147 222.42 147 427.42 239.55 396.17 338.4 421.17 431 389.92 431 184.92 338.43 216.17" fill="#cfeae6"/><polygon points="338.61 216.66 239.68 191.66 147 222.91 147 427.9 239.73 396.65 338.49 421.65 431 390.4 431 185.41 338.61 216.66" fill="#cfeae6"/><polygon points="339.28 217.14 240.52 192.14 148 223.39 148 428.39 240.41 397.14 339.33 422.14 432 390.89 432 185.89 339.28 217.14" fill="#cfeae6"/><polygon points="339.46 217.63 240.61 192.63 148 223.88 148 428.88 240.59 397.63 339.42 422.63 432 391.38 432 186.38 339.46 217.63" fill="#cfeae6"/><polygon points="339.64 218.12 241.2 193.12 149 224.37 149 429.37 241.27 398.12 339.76 423.12 432 391.87 432 186.87 339.64 218.12" fill="#d0eae6"/><polygon points="339.82 218.6 241.28 193.6 149 224.85 149 429.85 241.44 398.6 339.85 423.6 432 392.35 432 187.35 339.82 218.6" fill="#d0eae6"/><polygon points="340.5 219.09 241.62 194.09 149 225.34 149 430.34 241.62 399.09 340.44 424.09 433 392.84 433 187.84 340.5 219.09" fill="#d0eae6"/><polygon points="340.68 219.57 241.71 194.57 149 225.82 149 430.82 241.8 399.57 340.53 424.57 433 393.32 433 188.32 340.68 219.57" fill="#d0eae6"/><polygon points="341.36 220.06 242.55 195.06 150 226.31 150 431.31 242.48 400.06 341.37 425.06 434 393.81 434 188.81 341.36 220.06" fill="#d0eae6"/><polygon points="341.54 220.55 243.14 195.55 151 226.8 151 431.8 243.16 400.55 341.7 425.55 434 394.3 434 189.3 341.54 220.55" fill="#d0ebe7"/><polygon points="341.71 221.03 243.23 196.03 151 227.28 151 432.29 243.34 401.04 341.8 426.04 434 394.79 434 189.78 341.71 221.03" fill="#d0ebe7"/><polygon points="342.39 221.52 243.57 196.52 151 227.77 151 432.77 243.52 401.52 342.38 426.52 435 395.27 435 190.27 342.39 221.52" fill="#d1ebe7"/><polygon points="342.57 222.01 243.66 197.01 151 228.26 151 433.26 243.7 402.01 342.47 427.01 435 395.76 435 190.76 342.57 222.01" fill="#d1ebe7"/><polygon points="343.25 222.5 244.5 197.5 152 228.75 152 433.75 244.38 402.5 343.31 427.5 436 396.25 436 191.25 343.25 222.5" fill="#d1ebe7"/><polygon points="343.43 222.98 244.59 197.98 152 229.23 152 434.23 244.55 402.98 343.4 427.98 436 396.73 436 191.73 343.43 222.98" fill="#d1ebe7"/><polygon points="343.61 223.47 244.68 198.47 152 229.72 152 434.72 244.73 403.47 343.49 428.47 436 397.22 436 192.22 343.61 223.47" fill="#d1ebe7"/><polygon points="344.29 223.95 245.52 198.95 153 230.2 153 435.2 245.41 403.95 344.33 428.95 437 397.7 437 192.7 344.29 223.95" fill="#d1ebe7"/><polygon points="344.47 224.44 245.61 199.44 153 230.69 153 435.69 245.59 404.44 344.42 429.44 437 398.19 437 193.19 344.47 224.44" fill="#d1ebe7"/><polygon points="344.64 224.93 246.2 199.93 154 231.18 154 436.18 246.27 404.93 344.76 429.93 437 398.68 437 193.68 344.64 224.93" fill="#d1ebe7"/><polygon points="344.82 225.41 246.29 200.41 154 231.66 154 436.66 246.45 405.41 344.85 430.41 437 399.16 437 194.16 344.82 225.41" fill="#d2ebe7"/><polygon points="345.5 225.9 246.63 200.9 154 232.15 154 437.15 246.63 405.9 345.44 430.9 438 399.65 438 194.65 345.5 225.9" fill="#d2ece8"/><polygon points="345.68 226.39 246.72 201.39 154 232.64 154 437.64 246.81 406.39 345.53 431.39 438 400.14 438 195.14 345.68 226.39" fill="#d2ece8"/><polygon points="346.36 226.87 247.56 201.87 155 233.12 155 438.12 247.49 406.87 346.37 431.87 439 400.62 439 195.62 346.36 226.87" fill="#d2ece8"/><polygon points="346.54 227.36 248.14 202.36 156 233.61 156 438.61 248.16 407.36 346.71 432.36 439 401.11 439 196.11 346.54 227.36" fill="#d2ece8"/><polygon points="346.72 227.85 248.23 202.85 156 234.1 156 439.1 248.34 407.85 346.8 432.85 439 401.6 439 196.6 346.72 227.85" fill="#d2ece8"/><polygon points="347.4 228.33 248.57 203.33 156 234.58 156 439.58 248.52 408.33 347.39 433.33 440 402.08 440 197.08 347.4 228.33" fill="#d2ece8"/><polygon points="347.57 228.82 248.66 203.82 156 235.07 156 440.07 248.7 408.82 347.48 433.82 440 402.57 440 197.57 347.57 228.82" fill="#d2ece8"/><polygon points="348.25 229.31 249.5 204.31 157 235.56 157 440.56 249.38 409.31 348.31 434.31 441 403.06 441 198.06 348.25 229.31" fill="#d3ece8"/><polygon points="348.43 229.79 249.59 204.79 157 236.04 157 441.04 249.56 409.79 348.4 434.79 441 403.54 441 198.54 348.43 229.79" fill="#d3ece8"/><polygon points="348.61 230.28 249.68 205.28 157 236.53 157 441.53 249.74 410.28 348.49 435.28 441 404.03 441 199.03 348.61 230.28" fill="#d3ece8"/><polygon points="349.29 230.77 250.52 205.77 158 237.02 158 442.02 250.41 410.77 349.33 435.77 442 404.52 442 199.52 349.29 230.77" fill="#d3ece8"/><polygon points="349.47 231.25 250.61 206.25 158 237.5 158 442.5 250.59 411.25 349.42 436.25 442 405 442 200 349.47 231.25" fill="#d3ede9"/><polygon points="349.65 231.74 251.2 206.74 159 237.99 159 442.99 251.27 411.74 349.76 436.74 442 405.49 442 200.49 349.65 231.74" fill="#d3ede9"/><polygon points="349.83 232.23 251.29 207.23 159 238.48 159 443.48 251.45 412.23 349.85 437.23 442 405.98 442 200.98 349.83 232.23" fill="#d3ede9"/><polygon points="350.5 232.71 251.63 207.71 159 238.96 159 443.96 251.63 412.71 350.44 437.71 443 406.46 443 201.46 350.5 232.71" fill="#d3ede9"/><polygon points="350.68 233.2 251.72 208.2 159 239.45 159 444.45 251.81 413.2 350.53 438.2 443 406.95 443 201.95 350.68 233.2" fill="#d4ede9"/><polygon points="351.36 233.69 252.56 208.69 160 239.94 160 444.94 252.49 413.69 351.37 438.69 444 407.44 444 202.44 351.36 233.69" fill="#d4ede9"/><polygon points="351.54 234.17 253.15 209.17 161 240.42 161 445.42 253.17 414.17 351.71 439.17 444 407.92 444 202.92 351.54 234.17" fill="#d4ede9"/><polygon points="351.72 234.66 253.24 209.66 161 240.91 161 445.91 253.34 414.66 351.8 439.66 444 408.41 444 203.41 351.72 234.66" fill="#d4ede9"/><polygon points="352.4 235.15 253.57 210.15 161 241.4 161 446.4 253.52 415.15 352.39 440.15 445 408.9 445 203.9 352.4 235.15" fill="#d4ede9"/><polygon points="352.58 235.63 253.66 210.63 161 241.88 161 446.88 253.7 415.63 352.48 440.63 445 409.38 445 204.38 352.58 235.63" fill="#d4ede9"/><polygon points="353.26 236.12 254.5 211.12 162 242.37 162 447.37 254.38 416.12 353.32 441.12 446 409.87 446 204.87 353.26 236.12" fill="#d4ede9"/><polygon points="353.44 236.61 254.59 211.61 162 242.86 162 447.86 254.56 416.61 353.4 441.61 446 410.36 446 205.36 353.44 236.61" fill="#d5eeea"/><polygon points="353.61 237.09 254.68 212.09 162 243.34 162 448.34 254.74 417.09 353.5 442.09 446 410.84 446 205.84 353.61 237.09" fill="#d5eeea"/><polygon points="354.29 237.58 255.52 212.58 163 243.83 163 448.83 255.42 417.58 354.33 442.58 447 411.33 447 206.33 354.29 237.58" fill="#d5eeea"/><polygon points="354.47 238.07 255.61 213.07 163 244.32 163 449.32 255.6 418.07 354.42 443.07 447 411.82 447 206.82 354.47 238.07" fill="#d5eeea"/><polygon points="354.65 238.55 256.2 213.55 164 244.8 164 449.8 256.28 418.55 354.76 443.55 447 412.3 447 207.3 354.65 238.55" fill="#d5eeea"/><polygon points="354.83 239.04 256.29 214.04 164 245.29 164 450.29 256.45 419.04 354.85 444.04 447 412.79 447 207.79 354.83 239.04" fill="#d5eeea"/><polygon points="355.51 239.53 256.63 214.53 164 245.78 164 450.78 256.63 419.53 355.44 444.53 448 413.28 448 208.28 355.51 239.53" fill="#d5eeea"/><polygon points="355.69 240.01 256.72 215.01 164 246.26 164 451.26 256.81 420.01 355.53 445.01 448 413.76 448 208.76 355.69 240.01" fill="#d5eeea"/><polygon points="356.37 240.5 257.56 215.5 165 246.75 165 451.75 257.49 420.5 356.37 445.5 449 414.25 449 209.25 356.37 240.5" fill="#d6eeea"/><polygon points="356.55 240.99 258.15 215.99 166 247.24 166 452.24 258.17 420.99 356.71 445.99 449 414.74 449 209.74 356.55 240.99" fill="#d6eeea"/><polygon points="356.72 241.47 258.24 216.47 166 247.72 166 452.72 258.35 421.47 356.8 446.47 449 415.22 449 210.22 356.72 241.47" fill="#d6eeea"/><polygon points="357.4 241.96 258.58 216.96 166 248.21 166 453.21 258.53 421.96 357.39 446.96 450 415.71 450 210.71 357.4 241.96" fill="#d6efeb"/><polygon points="357.58 242.45 258.67 217.45 166 248.7 166 453.7 258.71 422.45 357.48 447.45 450 416.2 450 211.2 357.58 242.45" fill="#d6efeb"/><polygon points="358.26 242.93 259.5 217.93 167 249.18 167 454.18 259.38 422.93 358.32 447.93 451 416.68 451 211.68 358.26 242.93" fill="#d6efeb"/><polygon points="358.44 243.42 259.59 218.42 167 249.67 167 454.67 259.56 423.42 358.41 448.42 451 417.17 451 212.17 358.44 243.42" fill="#d6efeb"/><polygon points="358.62 243.91 259.68 218.91 167 250.16 167 455.16 259.74 423.91 358.5 448.91 451 417.66 451 212.66 358.62 243.91" fill="#d6efeb"/><polygon points="359.3 244.39 260.52 219.39 168 250.64 168 455.64 260.42 424.39 359.34 449.39 452 418.14 452 213.14 359.3 244.39" fill="#d7efeb"/><polygon points="359.48 244.88 260.61 219.88 168 251.13 168 456.13 260.6 424.88 359.43 449.88 452 418.63 452 213.63 359.48 244.88" fill="#d7efeb"/><polygon points="359.65 245.37 261.2 220.37 169 251.62 169 456.62 261.28 425.37 359.76 450.37 452 419.12 452 214.12 359.65 245.37" fill="#d7efeb"/><polygon points="359.83 245.85 261.29 220.85 169 252.1 169 457.1 261.46 425.85 359.85 450.85 452 419.6 452 214.6 359.83 245.85" fill="#d7efeb"/><polygon points="360.51 246.34 261.63 221.34 169 252.59 169 457.59 261.64 426.34 360.44 451.34 453 420.09 453 215.09 360.51 246.34" fill="#d7efeb"/><polygon points="360.69 246.83 261.72 221.83 169 253.08 169 458.08 261.81 426.83 360.53 451.83 453 420.58 453 215.58 360.69 246.83" fill="#d7efeb"/><polygon points="361.37 247.31 262.56 222.31 170 253.56 170 458.56 262.49 427.31 361.37 452.31 454 421.06 454 216.06 361.37 247.31" fill="#d7efeb"/><polygon points="361.55 247.8 263.15 222.8 171 254.05 171 459.05 263.17 427.8 361.71 452.8 454 421.55 454 216.55 361.55 247.8" fill="#d8f0ec"/><polygon points="361.73 248.29 263.24 223.29 171 254.54 171 459.54 263.35 428.29 361.8 453.29 454 422.04 454 217.04 361.73 248.29" fill="#d8f0ec"/><polygon points="362.4 248.77 263.58 223.77 171 255.02 171 460.02 263.53 428.77 362.39 453.77 455 422.52 455 217.52 362.4 248.77" fill="#d8f0ec"/><polygon points="362.58 249.26 263.67 224.26 171 255.51 171 460.51 263.71 429.26 362.48 454.26 455 423.01 455 218.01 362.58 249.26" fill="#d8f0ec"/><polygon points="363.26 249.75 264.51 224.75 172 256 172 461 264.39 429.75 363.32 454.75 456 423.5 456 218.5 363.26 249.75" fill="#d8f0ec"/><polygon points="363.44 250.23 264.6 225.23 172 256.48 172 461.48 264.57 430.23 363.41 455.23 456 423.98 456 218.98 363.44 250.23" fill="#d8f0ec"/><polygon points="363.62 250.72 264.69 225.72 172 256.97 172 461.97 264.75 430.72 363.5 455.72 456 424.47 456 219.47 363.62 250.72" fill="#d8f0ec"/><polygon points="364.3 251.21 265.52 226.21 173 257.46 173 462.46 265.42 431.21 364.34 456.21 457 424.96 457 219.96 364.3 251.21" fill="#d8f0ec"/><polygon points="364.48 251.69 265.61 226.69 173 257.94 173 462.94 265.6 431.69 364.43 456.69 457 425.44 457 220.44 364.48 251.69" fill="#d9f0ec"/><polygon points="364.66 252.18 266.2 227.18 174 258.43 174 463.43 266.28 432.18 364.77 457.18 457 425.93 457 220.93 364.66 252.18" fill="#d9f0ec"/><polygon points="364.84 252.67 266.29 227.67 174 258.92 174 463.92 266.46 432.67 364.86 457.67 457 426.42 457 221.42 364.84 252.67" fill="#d9f0ec"/><polygon points="365.51 253.15 266.63 228.15 174 259.4 174 464.4 266.64 433.15 365.44 458.15 458 426.9 458 221.9 365.51 253.15" fill="#d9f1ed"/><polygon points="365.69 253.64 266.72 228.64 174 259.89 174 464.89 266.82 433.64 365.53 458.64 458 427.39 458 222.39 365.69 253.64" fill="#d9f1ed"/><polygon points="366.37 254.13 267.56 229.13 175 260.38 175 465.38 267.5 434.13 366.37 459.13 459 427.88 459 222.88 366.37 254.13" fill="#d9f1ed"/><polygon points="366.55 254.61 268.15 229.61 176 260.86 176 465.86 268.18 434.61 366.71 459.61 459 428.36 459 223.36 366.55 254.61" fill="#d9f1ed"/><polygon points="366.73 255.1 268.24 230.1 176 261.35 176 466.35 268.36 435.1 366.8 460.1 459 428.85 459 223.85 366.73 255.1" fill="#d9f1ed"/><polygon points="367.41 255.59 268.58 230.59 176 261.84 176 466.84 268.53 435.59 367.39 460.59 460 429.34 460 224.34 367.41 255.59" fill="#daf1ed"/><polygon points="367.59 256.07 268.67 231.07 176 262.32 176 467.32 268.71 436.07 367.48 461.07 460 429.82 460 224.82 367.59 256.07" fill="#daf1ed"/><polygon points="368.27 256.56 269.51 231.56 177 262.81 177 467.81 269.39 436.56 368.32 461.56 461 430.31 461 225.31 368.27 256.56" fill="#daf1ed"/><polygon points="368.44 257.05 269.6 232.05 177 263.3 177 468.3 269.57 437.05 368.41 462.05 461 430.8 461 225.8 368.44 257.05" fill="#daf1ed"/><polygon points="368.62 257.53 269.69 232.53 177 263.78 177 468.78 269.75 437.53 368.5 462.53 461 431.28 461 226.28 368.62 257.53" fill="#daf1ed"/><polygon points="369.3 258.02 270.53 233.02 178 264.27 178 469.27 270.43 438.02 369.34 463.02 462 431.77 462 226.77 369.3 258.02" fill="#daf1ed"/><polygon points="369.48 258.51 270.62 233.51 178 264.76 178 469.76 270.61 438.51 369.43 463.51 462 432.26 462 227.26 369.48 258.51" fill="#daf2ee"/><polygon points="369.66 258.99 271.2 233.99 179 265.24 179 470.24 271.29 438.99 369.77 463.99 462 432.74 462 227.74 369.66 258.99" fill="#daf2ee"/><polygon points="369.84 259.48 271.29 234.48 179 265.73 179 470.73 271.46 439.48 369.86 464.48 462 433.23 462 228.23 369.84 259.48" fill="#dbf2ee"/><polygon points="370.52 259.96 271.63 234.97 179 266.21 179 471.21 271.64 439.96 370.45 464.96 463 433.71 463 228.72 370.52 259.96" fill="#dbf2ee"/><polygon points="370.7 260.45 271.72 235.45 179 266.7 179 471.7 271.82 440.45 370.54 465.45 463 434.2 463 229.2 370.7 260.45" fill="#dbf2ee"/><polygon points="371.38 260.94 272.56 235.94 180 267.19 180 472.19 272.5 440.94 371.38 465.94 464 434.69 464 229.69 371.38 260.94" fill="#dbf2ee"/></g></g><g id="207c9705-2f1c-4b2f-88db-16fdcf3bfe69" data-name="Objects"><polygon points="200 342.5 107 373.75 107 168.75 200 137.5 200 342.5" fill="#fff"/><polygon points="391 336.25 299 367.5 299 162.5 391 131.25 391 336.25" fill="#fff"/><polygon points="299 367.5 200 342.5 200 137.5 299 162.5 299 367.5" fill="#fff"/><polygon id="88b66ca4-6f1e-4f25-8558-269b040fc4ca" data-name="&lt;Clipping Path&gt;" points="298.88 175.94 200 150.31 200 150.21 120 177.72 120 356.33 200 328.96 200 328.96 298.88 354.06 379 327.28 379 148.67 298.88 175.94" fill="#f4e9d3"/><g clip-path="url(#278c9502-2c10-4d9f-a6d7-6bbd90cc09ce)"><path d="M339.38,146.25s-81-4.53-134.17-6.92c2.13,13.18,5.79,35.51,7.67,44.79,15.49-2.27,35.37-5.28,39.51-6.37L245.77,149l5-1.63L261,195.65l43,1.22,27.89-21.23Z" fill="#b8cd65"/><path d="M195.24,191.75c1.78,10.43,3.27,19.11,3.51,20.13h0l0.14,0.73-19.48,3-0.62-5,13.89-2.54-9.06-55.15,5-.71s3.06,18.23,5.83,34.56c1.73-.25,6.78-1,13.23-1.9l-7.52-45.78c-23.18-1-39.92-1.55-40.11-1-0.62,1.88-23.75,25-23.75,25l35.63,83.75,54.38-8.12,31.06-39.68-3.67-15.92Z" fill="#b8cd65"/><polygon points="125 172.06 106.88 173.41 108.09 206 140.6 206 125 172.06" fill="#f9d1b1"/><polygon points="158.53 266.21 140.89 253.44 126.32 279.34 123.59 277.81 138.34 251.6 113.8 233.84 117.15 232.41 159.7 263.2 163.13 254.5 142.04 209 108.21 209 111.25 290.13 146.88 296.31 158.53 266.21" fill="#f9d1b1"/><path d="M115.63,303.75s4.38,67.5,6.25,66.88S160,351.25,160,351.25l1.88-19.37-15.62-22.5S117.5,303.13,115.63,303.75Z" fill="#b8cd65"/><polygon points="176.25 329.38 178.13 340 251.25 360.63 252.5 320 219.38 313.75 176.25 329.38" fill="#f9d1b1"/><path d="M308.94,336H257.16l-0.29,14.5,71.88,21.94,7.49-2.88c-1.74-2.2-3.47-4.4-5.18-6.62-3.51-4.58-7-9.17-10.55-13.71l-0.51,0Z" fill="#b8cd65"/><polygon points="284.61 307.32 257.5 319.28 257.23 333 306.3 333 284.61 307.32" fill="#b8cd65"/><polygon points="323.58 286.53 332.85 303.33 350.52 293.2 341.01 276.53 323.58 286.53" fill="#f9d1b1"/><polygon points="362.04 164.38 398.71 201.46 399.33 201.07 402.5 126.25 376.12 144.38 383.13 146.25 362.04 164.38" fill="#f9d1b1"/><polygon points="336.38 245.39 352.55 274.06 397.42 246.24 399.03 208.16 398.04 207.15 336.38 245.39" fill="#f9d1b1"/><polygon points="394.8 203.88 358.63 167.31 337.66 185.34 360.85 224.94 394.8 203.88" fill="#f9d1b1"/><polygon points="320.81 241.12 303.27 246.16 307.48 263.87 303.11 264.91 298.96 247.41 281.25 252.5 289.38 301.25 338.91 272.84 320.81 241.12" fill="#f9d1b1"/><path d="M383.75,329.38L374.38,335l-21.75-38.11-21.72,12.4-2.05-3.66,0.11-.06-9.27-16.8-29.65,17,34.34,42.35-0.94.27c3.32,4.25,6.64,8.5,10,12.71q2.94,3.66,5.94,7.27l53.73-20.87,4.06-95.84L354.76,278Z" fill="#f9d1b1"/><polygon points="334.2 188.31 313.99 205.68 334.18 241.48 357.03 227.3 334.2 188.31" fill="#f9d1b1"/><polygon points="150 209 150 206 140.6 206 108.09 206 95.63 206 93.75 209 108.21 209 142.04 209 150 209" fill="#f4e9d3"/><polygon points="113.8 233.84 138.34 251.6 123.59 277.81 126.32 279.34 140.89 253.44 158.53 266.21 159.37 266.82 161.2 264.28 159.7 263.2 117.15 232.41 113.8 233.84" fill="#f4e9d3"/><path d="M419.45,232.57l-22,13.67-44.86,27.82-16.17-28.67L398,207.15l1,1,13.55,13.7,3.19-3.15-13.82-14,2.37-1.47L402,199.44l-2.62,1.63-0.62.38L362,164.38l21.08-18.13-7-1.87-2.37-.63-18.32,13.94L353.8,156l-3.19,3.15,1.22,1.23-20,15.21L304,196.87l-0.83.63,7.44,8.5,3.18,22.75,7.06,12.37,18.1,31.72-49.53,28.41-2.05,1.18-0.45-.55-3.75,3.75,1.48,1.7L306.3,333H255.63l-1.87,3h55.19L320,349.25l0.51-.08,2.93-.81,0.94-.25L290,305.77l29.65-17,9.27,16.8-0.11.06,2.05,3.66,21.72-12.4L374.38,335l9.38-5.62-29-51.4,42.43-26.31,24.63-15.28Zm-60.82-65.26,36.17,36.57-34,21.06-23.19-39.6ZM314,205.68l20.21-17.37,22.84,39-22.86,14.18Zm18.86,97.65-9.27-16.8,17.43-10,9.51,16.67Z" fill="#f4e9d3"/><path d="M245.77,149l6.62,28.7c-4.14,1.08-24,4.1-39.51,6.37-1.88-9.28-5.54-31.61-7.67-44.79-1-6.09-1.64-10.22-1.64-10.22l-5,.71,1.53,9.29,7.52,45.78c-6.45.94-11.49,1.66-13.23,1.9-2.77-16.32-5.83-34.56-5.83-34.56l-5,.71,9.06,55.15-13.89,2.54,0.63,5,19.48-3-0.14-.73h0c-0.24-1-1.73-9.69-3.51-20.13l58.39-8.61,3.67,15.92,1.32,5.73,3.14,0.62,0.73-1,0.32,0L261,195.65l-10.17-48.24Z" fill="#f4e9d3"/><polygon points="220.63 256.25 199.23 259.52 196.75 278.62 192.3 278.04 194.62 260.22 175.63 263.13 160.63 301.25 170.63 312.5 215.63 300.63 220.63 256.25" fill="#f9d1b1"/><polygon points="261.77 205.42 237.5 240 312.5 226.25 303.13 207.5 262.82 204.4 262.5 204.38 261.77 205.42" fill="#b8cd65"/><polygon points="233.13 257.56 231.62 272 273.13 272 270.63 253.84 233.13 257.56" fill="#f9d1b1"/><polygon points="228.75 299.19 254.38 306.16 276.25 294.14 274.17 279 230.84 279 228.75 299.19" fill="#f9d1b1"/><path d="M307.48,263.87l-4.2-17.71-1.61-6.77a10.73,10.73,0,0,1-4.12,2.09l1.41,5.92,4.15,17.5Z" fill="#f4e9d3"/><path d="M196.75,278.62l2.49-19.1,0.76-5.84a10.73,10.73,0,0,1-4.59.49l-0.79,6.06L192.3,278Z" fill="#f4e9d3"/></g><polygon points="200 328.96 200 150.31 299 175.94 299 354.06 200 328.96" fill="#0d2424" style="mix-blend-mode:soft-light"/><circle cx="249.43" cy="208.81" r="16.87" fill="#1c1419" style="mix-blend-mode:soft-light"/><path d="M250,89.13a37.78,37.78,0,0,0-37.78,37.78c0,30.18,37.78,82.46,37.78,82.46s37.79-50.38,37.79-82.46A37.79,37.79,0,0,0,250,89.13Zm0,66.71a28.92,28.92,0,1,1,28.92-28.93A28.92,28.92,0,0,1,250,155.84Z" fill="#df5900"/><path d="M250.14,89.13H250V98h0.14a28.92,28.92,0,0,1,0,57.85H250V209a0.59,0.59,0,0,0,.14.4s37.79-50.38,37.79-82.46A37.79,37.79,0,0,0,250.14,89.13Z" fill="#ff853f" opacity="0.6"/></g></g></svg>