<svg xmlns="http://www.w3.org/2000/svg" xmlns:xlink="http://www.w3.org/1999/xlink" version="1.1" id="Layer_1" x="0" y="0" viewBox="0 0 800 350" enable-background="new 0 0 800 350" xml:space="preserve"><rect id="XMLID_329_" y="-25" fill="#F2F2F2" width="800" height="400"/><g id="XMLID_47_"><defs><rect id="XMLID_48_" y="-25" width="800" height="400"/></defs><clipPath id="XMLID_99_"><use xlink:href="#XMLID_48_" overflow="visible"/></clipPath><g id="XMLID_61_" clip-path="url(#XMLID_99_)"><g id="XMLID_290_" display="none"><g id="XMLID_310_" display="inline"><polygon id="XMLID_328_" fill="#FFFFFF" points="397.4 114.4 361.8 168.3 445.5 223.6 486.6 161.3 411.3 111.6 "/><g id="XMLID_312_"><rect id="XMLID_327_" x="375" y="145.6" transform="matrix(0.5511 -0.8344 0.8344 0.5511 40.2014 398.9049)" fill="#E7E7E8" width="31.7" height="32.9"/><g id="XMLID_316_"><rect id="XMLID_326_" x="386.7" y="159.9" transform="matrix(0.5511 -0.8344 0.8344 0.5511 53.4483 421.647)" fill="#E7E7E8" width="63.8" height="2.6"/><rect id="XMLID_325_" x="391.3" y="162.9" transform="matrix(0.5511 -0.8344 0.8344 0.5511 52.9754 426.881)" fill="#E7E7E8" width="63.8" height="2.6"/><rect id="XMLID_324_" x="396" y="166" transform="matrix(0.5511 -0.8344 0.8344 0.5511 52.5028 432.1154)" fill="#E7E7E8" width="63.8" height="2.6"/><rect id="XMLID_323_" x="400.6" y="169" transform="matrix(0.5511 -0.8344 0.8344 0.5511 52.0295 437.3488)" fill="#E7E7E8" width="63.8" height="2.6"/><rect id="XMLID_322_" x="405.2" y="172.1" transform="matrix(0.5511 -0.8344 0.8344 0.5511 51.5566 442.5828)" fill="#E7E7E8" width="63.8" height="2.6"/><rect id="XMLID_321_" x="409.8" y="175.1" transform="matrix(0.5511 -0.8344 0.8344 0.5511 51.0836 447.8167)" fill="#E7E7E8" width="63.8" height="2.6"/><rect id="XMLID_320_" x="414.5" y="178.2" transform="matrix(0.5511 -0.8344 0.8344 0.5511 50.6107 453.0506)" fill="#E7E7E8" width="63.8" height="2.6"/><rect id="XMLID_319_" x="419.1" y="181.3" transform="matrix(0.5511 -0.8344 0.8344 0.5511 50.1379 458.2847)" fill="#E7E7E8" width="63.8" height="2.6"/><rect id="XMLID_318_" x="423.7" y="184.3" transform="matrix(0.5511 -0.8344 0.8344 0.5511 49.6648 463.5186)" fill="#E7E7E8" width="63.8" height="2.6"/><rect id="XMLID_317_" x="428.4" y="187.4" transform="matrix(0.5511 -0.8344 0.8344 0.5511 49.1922 468.7531)" fill="#E7E7E8" width="63.8" height="2.6"/></g><g id="XMLID_313_"><path id="XMLID_314_" fill="#E7E7E8" d="M415.3 139.7c-1.2 1.6-2.6 2.7-2.6 2.7l-3.2-2.1 1.1-1.7 1.6 0.6c0 0 0.7-0.4 1.4-1.4 0.7-1.1 0.9-2.3 0.1-2.9 -2-1.3-4.7 4.9-8.9 2.2 -1.9-1.3-2.2-3.3-1.4-5.4l-2.2-1.4 1.3-2 2.1 1.4c1.2-1.5 2.6-2.4 2.6-2.4l3 2.1 -1 1.6 -1.6-0.5c0 0-0.8 0.6-1.2 1.3 -0.8 1.2-0.7 2.1 0 2.5 1.9 1.3 4.8-4.8 8.8-2.2 2.1 1.4 2.4 3.5 1.6 5.7l2.6 1.7 -1.3 2L415.3 139.7z"/></g></g><polygon id="XMLID_311_" fill="#F2F1F1" points="397.4 114.4 411.3 111.6 405.7 119.9 "/></g><g id="XMLID_291_" display="inline"><polygon id="XMLID_309_" fill="#FFFFFF" points="370.3 136.3 351.7 198.1 447.8 227 469.3 155.6 382.8 129.5 "/><g id="XMLID_293_"><rect id="XMLID_308_" x="361.9" y="167.3" transform="matrix(0.2881 -0.9576 0.9576 0.2881 92.9129 492.561)" fill="#E7E7E8" width="31.7" height="32.9"/><g id="XMLID_297_"><rect id="XMLID_307_" x="372.2" y="173.6" transform="matrix(0.2881 -0.9576 0.9576 0.2881 120.1497 511.4453)" fill="#E7E7E8" width="63.8" height="2.6"/><rect id="XMLID_306_" x="377.5" y="175.2" transform="matrix(0.2881 -0.9576 0.9576 0.2881 122.4004 517.6687)" fill="#E7E7E8" width="63.8" height="2.6"/><rect id="XMLID_305_" x="382.8" y="176.8" transform="matrix(0.2881 -0.9576 0.9576 0.2881 124.6508 523.892)" fill="#E7E7E8" width="63.8" height="2.6"/><rect id="XMLID_304_" x="388.1" y="178.4" transform="matrix(0.2881 -0.9576 0.9576 0.2881 126.9015 530.1156)" fill="#E7E7E8" width="63.8" height="2.6"/><rect id="XMLID_303_" x="393.4" y="180" transform="matrix(0.2881 -0.9576 0.9576 0.2881 129.1526 536.3394)" fill="#E7E7E8" width="63.8" height="2.6"/><rect id="XMLID_302_" x="398.7" y="181.6" transform="matrix(0.2881 -0.9576 0.9576 0.2881 131.4028 542.5626)" fill="#E7E7E8" width="63.8" height="2.6"/><rect id="XMLID_301_" x="404" y="183.2" transform="matrix(0.2881 -0.9576 0.9576 0.2881 133.6532 548.7859)" fill="#E7E7E8" width="63.8" height="2.6"/><rect id="XMLID_300_" x="409.3" y="184.8" transform="matrix(0.2881 -0.9576 0.9576 0.2881 135.9039 555.0093)" fill="#E7E7E8" width="63.8" height="2.6"/><rect id="XMLID_299_" x="414.6" y="186.4" transform="matrix(0.2881 -0.9576 0.9576 0.2881 138.1546 561.2329)" fill="#E7E7E8" width="63.8" height="2.6"/><rect id="XMLID_298_" x="420" y="188" transform="matrix(0.2881 -0.9576 0.9576 0.2881 140.4051 567.4564)" fill="#E7E7E8" width="63.8" height="2.6"/></g><g id="XMLID_294_"><path id="XMLID_295_" fill="#E7E7E8" d="M394.7 155.3c-0.7 1.9-1.8 3.4-1.8 3.4l-3.7-1.1 0.6-1.9 1.7 0.2c0 0 0.6-0.6 0.9-1.7 0.4-1.3 0.2-2.5-0.8-2.8 -2.3-0.7-3.1 6.1-7.9 4.6 -2.2-0.7-3.1-2.5-2.9-4.8l-2.5-0.7 0.7-2.3 2.4 0.7c0.7-1.8 1.7-3.1 1.7-3.1l3.4 1.1 -0.5 1.8 -1.7-0.1c0 0-0.6 0.8-0.8 1.6 -0.4 1.3 0 2.2 0.7 2.4 2.2 0.7 3.2-6 7.8-4.7 2.4 0.7 3.4 2.7 3.2 5l3 0.9 -0.7 2.3L394.7 155.3z"/></g></g><polygon id="XMLID_292_" fill="#F2F1F1" points="370.3 136.3 382.8 129.5 379.9 139.2 "/></g></g><g id="XMLID_229_"><g id="XMLID_240_"><g id="XMLID_253_"><g id="XMLID_254_"><path id="XMLID_287_" fill="#414654" d="M396 277.9c0.6 1.3-0.1 2.9-1.4 3.5l-67.8 28.9c-1.3 0.6-2.9-0.1-3.5-1.4l-39.6-93c-0.6-1.3 0.1-2.9 1.4-3.5l67.8-28.9c1.3-0.6 2.9 0.1 3.5 1.4L396 277.9z"/><path id="XMLID_286_" fill="#BCBEC0" d="M329.8 303.8c-1.9 0.8-4.1-0.1-5-2L290.1 220c-0.8-1.9 0.1-4.2 2-5l58.1-24.7c1.9-0.8 4.1 0.1 5 2l34.8 81.7c0.8 1.9-0.1 4.2-2 5L329.8 303.8z"/><path id="XMLID_285_" fill="#D1D3D4" d="M329.6 303.1c-1.9 0.8-4.1-0.1-5-2l-34.8-81.7c-0.8-1.9 0.1-4.2 2-5l58.1-24.7c1.9-0.8 4.2 0.1 5 2l34.8 81.7c0.8 1.9-0.1 4.2-2 5L329.6 303.1z"/><path id="XMLID_284_" fill="#F1F2F2" d="M289.5 218.7l0.6 1.4c-0.8-1.9 0.1-4.1 2-5l58.1-24.7c1.9-0.8 4.2 0.1 5 2l-0.6-1.4c-0.8-1.9-3-2.8-5-2l-58.1 24.7C289.6 214.6 288.7 216.8 289.5 218.7z"/><path id="XMLID_283_" fill="#FFFFFF" d="M329.3 302.5c-1.9 0.8-4.2-0.1-5-2l-34.8-81.7c-0.8-1.9 0.1-4.1 2-5l58.1-24.7c1.9-0.8 4.2 0.1 5 2l34.8 81.7c0.8 1.9-0.1 4.1-2 5L329.3 302.5z"/><g id="XMLID_255_"><g id="XMLID_280_"><path id="XMLID_282_" fill="#808285" d="M347.3 192.6c-0.6 0.3-0.9 1-0.6 1.6 0.3 0.6 1 0.9 1.6 0.6 0.6-0.3 0.9-1 0.6-1.6C348.6 192.7 347.9 192.4 347.3 192.6z"/><linearGradient id="XMLID_351_" gradientUnits="userSpaceOnUse" x1="6944.64" y1="1688.45" x2="6936.44" y2="1688.45" gradientTransform="matrix(-0.3918 -0.92 -0.92 0.3918 4618.936 5913.9165)"><stop offset="0" stop-color="#DCDDDE"/><stop offset="1" stop-color="#A7A9AC"/></linearGradient><path id="XMLID_281_" fill="url(#XMLID_351_)" d="M344.7 186.4c-0.5 0.2-0.7 0.8-0.5 1.2l2.6 6.2c0.2 0.5 0.8 0.7 1.2 0.5l0 0c0.5-0.2 0.7-0.8 0.5-1.2l-2.6-6.2C345.7 186.4 345.1 186.2 344.7 186.4L344.7 186.4z"/></g><g id="XMLID_277_"><path id="XMLID_279_" fill="#808285" d="M340.9 195.4c-0.6 0.3-0.9 1-0.6 1.6 0.3 0.6 1 0.9 1.6 0.6 0.6-0.3 0.9-1 0.6-1.6C342.2 195.4 341.5 195.1 340.9 195.4z"/><linearGradient id="XMLID_352_" gradientUnits="userSpaceOnUse" x1="6944.64" y1="1695.46" x2="6936.44" y2="1695.46" gradientTransform="matrix(-0.3918 -0.92 -0.92 0.3918 4618.936 5913.9165)"><stop offset="0" stop-color="#DCDDDE"/><stop offset="1" stop-color="#A7A9AC"/></linearGradient><path id="XMLID_278_" fill="url(#XMLID_352_)" d="M338.2 189.1c-0.5 0.2-0.7 0.8-0.5 1.2l2.6 6.2c0.2 0.5 0.8 0.7 1.2 0.5l0 0c0.5-0.2 0.7-0.8 0.5-1.2l-2.6-6.2C339.2 189.1 338.7 188.9 338.2 189.1L338.2 189.1z"/></g><g id="XMLID_274_"><path id="XMLID_276_" fill="#808285" d="M334.4 198.1c-0.6 0.3-0.9 1-0.6 1.6 0.3 0.6 1 0.9 1.6 0.6 0.6-0.3 0.9-1 0.6-1.6C335.7 198.2 335 197.9 334.4 198.1z"/><linearGradient id="XMLID_355_" gradientUnits="userSpaceOnUse" x1="6944.64" y1="1702.47" x2="6936.44" y2="1702.47" gradientTransform="matrix(-0.3918 -0.92 -0.92 0.3918 4618.936 5913.9165)"><stop offset="0" stop-color="#DCDDDE"/><stop offset="1" stop-color="#A7A9AC"/></linearGradient><path id="XMLID_275_" fill="url(#XMLID_355_)" d="M331.8 191.9c-0.5 0.2-0.7 0.8-0.5 1.2l2.6 6.2c0.2 0.5 0.8 0.7 1.2 0.5l0 0c0.5-0.2 0.7-0.8 0.5-1.2l-2.6-6.2C332.8 191.9 332.2 191.7 331.8 191.9L331.8 191.9z"/></g><g id="XMLID_271_"><path id="XMLID_273_" fill="#808285" d="M328 200.9c-0.6 0.3-0.9 1-0.6 1.6 0.3 0.6 1 0.9 1.6 0.6 0.6-0.3 0.9-1 0.6-1.6C329.3 200.9 328.6 200.6 328 200.9z"/><linearGradient id="XMLID_356_" gradientUnits="userSpaceOnUse" x1="6944.64" y1="1709.48" x2="6936.44" y2="1709.48" gradientTransform="matrix(-0.3918 -0.92 -0.92 0.3918 4618.936 5913.9165)"><stop offset="0" stop-color="#DCDDDE"/><stop offset="1" stop-color="#A7A9AC"/></linearGradient><path id="XMLID_272_" fill="url(#XMLID_356_)" d="M325.3 194.6c-0.5 0.2-0.7 0.8-0.5 1.2l2.6 6.2c0.2 0.5 0.8 0.7 1.2 0.5l0 0c0.5-0.2 0.7-0.8 0.5-1.2l-2.6-6.2C326.3 194.6 325.8 194.4 325.3 194.6L325.3 194.6z"/></g><g id="XMLID_268_"><path id="XMLID_270_" fill="#808285" d="M321.5 203.6c-0.6 0.3-0.9 1-0.6 1.6 0.3 0.6 1 0.9 1.6 0.6 0.6-0.3 0.9-1 0.6-1.6C322.8 203.6 322.1 203.4 321.5 203.6z"/><linearGradient id="XMLID_373_" gradientUnits="userSpaceOnUse" x1="6944.64" y1="1716.49" x2="6936.44" y2="1716.49" gradientTransform="matrix(-0.3918 -0.92 -0.92 0.3918 4618.936 5913.9165)"><stop offset="0" stop-color="#DCDDDE"/><stop offset="1" stop-color="#A7A9AC"/></linearGradient><path id="XMLID_269_" fill="url(#XMLID_373_)" d="M318.9 197.4c-0.5 0.2-0.7 0.8-0.5 1.2l2.6 6.2c0.2 0.5 0.8 0.7 1.2 0.5l0 0c0.5-0.2 0.7-0.8 0.5-1.2l-2.6-6.2C319.9 197.4 319.3 197.2 318.9 197.4L318.9 197.4z"/></g><g id="XMLID_265_"><path id="XMLID_267_" fill="#808285" d="M315.1 206.4c-0.6 0.3-0.9 1-0.6 1.6 0.3 0.6 1 0.9 1.6 0.6 0.6-0.3 0.9-1 0.6-1.6C316.4 206.4 315.7 206.1 315.1 206.4z"/><linearGradient id="XMLID_374_" gradientUnits="userSpaceOnUse" x1="6944.64" y1="1723.51" x2="6936.44" y2="1723.51" gradientTransform="matrix(-0.3918 -0.92 -0.92 0.3918 4618.936 5913.9165)"><stop offset="0" stop-color="#DCDDDE"/><stop offset="1" stop-color="#A7A9AC"/></linearGradient><path id="XMLID_266_" fill="url(#XMLID_374_)" d="M312.4 200.1c-0.5 0.2-0.7 0.8-0.5 1.2l2.6 6.2c0.2 0.5 0.8 0.7 1.2 0.5l0 0c0.5-0.2 0.7-0.8 0.5-1.2l-2.6-6.2C313.4 200.1 312.9 199.9 312.4 200.1L312.4 200.1z"/></g><g id="XMLID_262_"><path id="XMLID_264_" fill="#808285" d="M308.6 209.1c-0.6 0.3-0.9 1-0.6 1.6 0.3 0.6 1 0.9 1.6 0.6 0.6-0.3 0.9-1 0.6-1.6C309.9 209.1 309.2 208.8 308.6 209.1z"/><linearGradient id="XMLID_375_" gradientUnits="userSpaceOnUse" x1="6944.64" y1="1730.52" x2="6936.45" y2="1730.52" gradientTransform="matrix(-0.3918 -0.92 -0.92 0.3918 4618.936 5913.9165)"><stop offset="0" stop-color="#DCDDDE"/><stop offset="1" stop-color="#A7A9AC"/></linearGradient><path id="XMLID_263_" fill="url(#XMLID_375_)" d="M306 202.9c-0.5 0.2-0.7 0.8-0.5 1.2l2.6 6.2c0.2 0.5 0.8 0.7 1.2 0.5l0 0c0.5-0.2 0.7-0.8 0.5-1.2l-2.6-6.2C307 202.9 306.4 202.7 306 202.9L306 202.9z"/></g><g id="XMLID_259_"><path id="XMLID_261_" fill="#808285" d="M302.2 211.9c-0.6 0.3-0.9 1-0.6 1.6 0.3 0.6 1 0.9 1.6 0.6 0.6-0.3 0.9-1 0.6-1.6C303.5 211.9 302.8 211.6 302.2 211.9z"/><linearGradient id="XMLID_376_" gradientUnits="userSpaceOnUse" x1="6944.64" y1="1737.53" x2="6936.44" y2="1737.53" gradientTransform="matrix(-0.3918 -0.92 -0.92 0.3918 4618.936 5913.9165)"><stop offset="0" stop-color="#DCDDDE"/><stop offset="1" stop-color="#A7A9AC"/></linearGradient><path id="XMLID_260_" fill="url(#XMLID_376_)" d="M299.5 205.6c-0.5 0.2-0.7 0.8-0.5 1.2l2.6 6.2c0.2 0.5 0.8 0.7 1.2 0.5l0 0c0.5-0.2 0.7-0.8 0.5-1.2l-2.6-6.2C300.5 205.6 300 205.4 299.5 205.6L299.5 205.6z"/></g><g id="XMLID_256_"><path id="XMLID_258_" fill="#808285" d="M295.7 214.6c-0.6 0.3-0.9 1-0.6 1.6 0.3 0.6 1 0.9 1.6 0.6 0.6-0.3 0.9-1 0.6-1.6C297 214.6 296.3 214.3 295.7 214.6z"/><linearGradient id="XMLID_377_" gradientUnits="userSpaceOnUse" x1="6944.64" y1="1744.54" x2="6936.44" y2="1744.54" gradientTransform="matrix(-0.3918 -0.92 -0.92 0.3918 4618.936 5913.9165)"><stop offset="0" stop-color="#DCDDDE"/><stop offset="1" stop-color="#A7A9AC"/></linearGradient><path id="XMLID_257_" fill="url(#XMLID_377_)" d="M293 208.4c-0.5 0.2-0.7 0.8-0.5 1.2l2.6 6.2c0.2 0.5 0.8 0.7 1.2 0.5l0 0c0.5-0.2 0.7-0.8 0.5-1.2l-2.6-6.2C294.1 208.4 293.5 208.2 293 208.4L293 208.4z"/></g></g></g></g><g id="XMLID_241_"><path id="XMLID_6_" fill="#E8E8E8" d="M355.2 203.9l-57.1 24.5c-0.3 0.1-0.6 0-0.8-0.3l-0.3-0.6c-0.1-0.3 0-0.6 0.3-0.8l57.1-24.5c0.3-0.1 0.6 0 0.8 0.3l0.3 0.6C355.6 203.4 355.5 203.8 355.2 203.9z"/><path id="XMLID_251_" fill="#E8E8E8" d="M357.5 210.3l-56.5 24.2c-0.5 0.2-1 0-1.2-0.5l0 0c-0.2-0.5 0-1 0.5-1.2l56.5-24.2c0.5-0.2 1 0 1.2 0.5l0 0C358.2 209.5 358 210.1 357.5 210.3z"/><path id="XMLID_250_" fill="#E8E8E8" d="M360.2 216.5l-56.5 24.2c-0.5 0.2-1 0-1.2-0.5l0 0c-0.2-0.5 0-1 0.5-1.2l56.5-24.2c0.5-0.2 1 0 1.2 0.5l0 0C360.9 215.8 360.7 216.3 360.2 216.5z"/><path id="XMLID_249_" fill="#E8E8E8" d="M362.9 222.8L306.5 247c-0.5 0.2-1 0-1.2-0.5l0 0c-0.2-0.5 0-1 0.5-1.2l56.5-24.2c0.5-0.2 1 0 1.2 0.5l0 0C363.6 222 363.4 222.6 362.9 222.8z"/><path id="XMLID_248_" fill="#E8E8E8" d="M365.6 229l-56.5 24.2c-0.5 0.2-1 0-1.2-0.5l0 0c-0.2-0.5 0-1 0.5-1.2l56.5-24.2c0.5-0.2 1 0 1.2 0.5l0 0C366.3 228.3 366.1 228.8 365.6 229z"/><path id="XMLID_247_" fill="#E8E8E8" d="M368.3 235.3l-56.5 24.2c-0.5 0.2-1 0-1.2-0.5l0 0c-0.2-0.5 0-1 0.5-1.2l56.5-24.2c0.5-0.2 1 0 1.2 0.5v0C369 234.5 368.7 235.1 368.3 235.3z"/><path id="XMLID_246_" fill="#E8E8E8" d="M371 241.6l-56.5 24.2c-0.5 0.2-1 0-1.2-0.5l0 0c-0.2-0.5 0-1 0.5-1.2l56.5-24.2c0.5-0.2 1 0 1.2 0.5l0 0C371.7 240.8 371.4 241.4 371 241.6z"/><path id="XMLID_245_" fill="#E8E8E8" d="M373.6 247.8L317.2 272c-0.5 0.2-1 0-1.2-0.5l0 0c-0.2-0.5 0-1 0.5-1.2l56.5-24.2c0.5-0.2 1 0 1.2 0.5l0 0C374.3 247.1 374.1 247.6 373.6 247.8z"/><path id="XMLID_244_" fill="#E8E8E8" d="M376.3 254.1l-56.5 24.2c-0.5 0.2-1 0-1.2-0.5l0 0c-0.2-0.5 0-1 0.5-1.2l56.5-24.2c0.5-0.2 1 0 1.2 0.5l0 0C377 253.3 376.8 253.9 376.3 254.1z"/><path id="XMLID_243_" fill="#E8E8E8" d="M379 260.3l-56.5 24.2c-0.5 0.2-1 0-1.2-0.5l0 0c-0.2-0.5 0-1 0.5-1.2l56.5-24.2c0.5-0.2 1 0 1.2 0.5l0 0C379.7 259.6 379.5 260.1 379 260.3z"/><path id="XMLID_5_" fill="#E8E8E8" d="M382 266.4l-57.1 24.5c-0.3 0.1-0.6 0-0.8-0.3l-0.3-0.6c-0.1-0.3 0-0.6 0.3-0.8l57.1-24.5c0.3-0.1 0.6 0 0.8 0.3l0.3 0.6C382.4 266 382.3 266.3 382 266.4z"/></g></g><g id="XMLID_230_"><g id="XMLID_231_"><g id="XMLID_236_"><polygon id="XMLID_239_" fill="#FEC873" points="365.5 276.8 363.9 276.1 399.1 199.6 400.8 200.3 "/><polygon id="XMLID_238_" fill="#EFB065" points="367.2 277.6 365.5 276.8 400.8 200.3 402.4 201.1 "/><polygon id="XMLID_237_" fill="#E39B47" points="368.8 278.4 367.2 277.6 402.4 201.1 404.1 201.8 "/></g><polygon id="XMLID_235_" fill="#EFD5A9" points="400.8 200.3 406.6 189.7 399.1 199.6 "/><polygon id="XMLID_234_" fill="#D6B59D" points="406.6 189.7 402.4 201.1 400.8 200.3 "/><polygon id="XMLID_233_" fill="#C3A386" points="406.6 189.7 404.1 201.8 402.4 201.1 "/><path id="XMLID_232_" fill="#5D5F63" d="M405.6 192.6c-0.1 0-0.1 0-0.2-0.1 -0.1 0-0.2-0.1-0.3-0.1 -0.1-0.1-0.2-0.2-0.4-0.3l1.9-2.5 -0.7 3.1C405.8 192.7 405.7 192.7 405.6 192.6z"/></g></g></g><g id="XMLID_138_" display="none"><g id="XMLID_140_" display="inline"><circle id="XMLID_151_" fill="#C3E4F0" cx="722.5" cy="141.9" r="17.7"/><path id="XMLID_143_" fill="#FFFEFE" d="M694.7 156.9l3.1 4.7 8.9-5.8c6.7 7.8 18.3 9.6 27.1 3.8 9.6-6.3 12.4-19.2 6.1-28.8 -6.3-9.6-19.2-12.4-28.8-6.1 -8.8 5.8-11.9 17.1-7.4 26.4L694.7 156.9zM713.8 129c7.3-4.8 17.1-2.7 21.9 4.6 4.8 7.3 2.7 17.1-4.6 21.9 -7.3 4.8-17.1 2.7-21.9-4.6C704.4 143.5 706.5 133.7 713.8 129z"/><circle id="XMLID_142_" fill="#E1F1F7" cx="724.4" cy="145.3" r="10.5"/><circle id="XMLID_141_" fill="#FDFFFF" cx="727.6" cy="150.1" r="3.7"/></g><path id="XMLID_139_" display="inline" fill="#2C2E3A" d="M694.6 154.6c-0.4 0.2-0.7 0.4-1.1 0.6l-38.3 24.9c-3.3 2.2-4.8 5.8-3.3 8 1.5 2.3 5.4 2.4 8.7 0.2l38.3-24.9c0.3-0.2 0.7-0.5 1-0.7L694.6 154.6z"/></g><g id="XMLID_121_"><linearGradient id="XMLID_380_" gradientUnits="userSpaceOnUse" x1="673.77" y1="450.28" x2="673.77" y2="155.65"><stop offset="0.31" stop-color="#FFFFFF"/><stop offset="0.47" stop-color="#FAFBFB"/><stop offset="0.65" stop-color="#EDEDEE"/><stop offset="0.84" stop-color="#D7D8D9"/><stop offset="1" stop-color="#BDBEC0"/></linearGradient><polygon id="XMLID_132_" fill="url(#XMLID_380_)" points="696.5 450.3 410.7 156.5 663.1 155.6 936.9 434.5 "/><path id="XMLID_137_" fill="#BDBEC0" d="M590.1 152.2c0.1 14.6-23.1 38.3-51.8 38.4 -28.8 0.2-52.2-23.3-52.2-37.8 -0.1-14.6 23.1-26.5 51.9-26.7C566.7 125.9 590 137.6 590.1 152.2z"/><path id="XMLID_136_" fill="#4B72AA" d="M589.7 151.4c0.1 14.6-23.1 37.4-51.8 37.6 -28.8 0.2-52.2-22.4-52.2-36.9 -0.1-14.6 23.1-26.5 51.9-26.7C566.3 125.2 589.6 136.9 589.7 151.4z"/><path id="XMLID_135_" fill="#2C2E3A" d="M589.2 150.5c0.1 14.6-23.1 38.3-51.8 38.4 -28.8 0.2-52.2-23.3-52.2-37.8 -0.1-14.6 23.1-26.5 51.9-26.7C565.8 124.3 589.2 136 589.2 150.5z"/><path id="XMLID_134_" fill="#2C2E3A" d="M711.4 79.8c0 1.9-2 3.4-4.5 3.5l-334.8 2c-2.5 0-4.6-1.5-4.6-3.4l0-7.1c0-1.9 2-3.4 4.5-3.5l334.8-2c2.5 0 4.6 1.5 4.6 3.4L711.4 79.8z"/><path id="XMLID_133_" fill="#BDBEC0" d="M410.7 156.5c0.7 1.3 2.8 2.3 4.7 2.3l244.4-1.5c1.8 0 4-1 4.8-2.3l4.9-7.8 -263.8 1.6L410.7 156.5z"/><path id="XMLID_129_" fill="#414654" d="M708.7 79.3l-338.3 2c-2.5 0-3.5 1.9-2.1 4.2l36.3 62 0.1 0.1 0 0 5 7.7c0.8 1.3 2.9 2.3 4.7 2.3l246.3-1.5c1.8 0 4-1 4.8-2.3l5-7.8 -0.1 0 0.1-0.1 40.1-62.5C712.1 81.2 711.3 79.3 708.7 79.3z"/><path id="XMLID_128_" fill="#FFFFFF" d="M373 85.9l39.9 65.9 249-1.6 42-66C704.2 83.8 373 85.9 373 85.9z"/><polygon id="XMLID_125_" fill="#4BC1DD" points="372.1 85.8 411.8 153 662.6 150.2 704.1 83.9 "/><polygon id="XMLID_124_" opacity="0.18" fill="#F2F2F2" points="372.1 85.8 539.5 150.9 411.8 153 "/><g id="XMLID_122_"><defs><polygon id="XMLID_123_" points="372.1 85.3 411.8 153 662.6 150.2 704.1 83.9 "/></defs><clipPath id="XMLID_383_"><use xlink:href="#XMLID_123_" overflow="visible"/></clipPath></g></g><g id="XMLID_101_"><g id="XMLID_103_"><path id="XMLID_4_" fill="#414654" d="M761.9 244.2l-40.1-12.5c-0.5-0.2-0.8-0.7-0.7-1.3l23.3-74.9c0.3-1.1 1.5-1.6 2.5-1.3l38.1 11.9c1.1 0.3 1.6 1.5 1.3 2.5l-23.3 74.9C762.9 244 762.4 244.3 761.9 244.2z"/><path id="XMLID_3_" fill="#2C2E3A" d="M764.2 233.5L726 221.6l18.2-58.4c0.2-0.5 0.7-0.8 1.3-0.7l36.3 11.3c0.5 0.2 0.8 0.7 0.7 1.3L764.2 233.5z"/><path id="XMLID_116_" fill="#343A54" d="M768 165.7l-6.8-2.1c-0.1 0-0.2-0.2-0.2-0.3l0 0c0-0.1 0.2-0.2 0.3-0.2l6.8 2.1c0.1 0 0.2 0.2 0.2 0.3l0 0C768.3 165.7 768.2 165.8 768 165.7z"/><circle id="XMLID_115_" fill="#343A54" cx="759.2" cy="162.7" r="0.6"/><g id="XMLID_104_"><circle id="XMLID_114_" fill="#2C2E3A" cx="743.5" cy="232.7" r="3.3"/><g id="XMLID_105_"><path id="XMLID_106_" fill="#414654" d="M743.8 234l-1.4-0.4c-0.2-0.1-0.3-0.3-0.2-0.5l0.5-1.6c0.1-0.2 0.3-0.3 0.5-0.2l1.4 0.4c0.2 0.1 0.3 0.3 0.2 0.5l-0.5 1.6C744.2 234 744 234.1 743.8 234zM743.1 231.4c-0.1 0-0.3 0-0.3 0.2l-0.5 1.6c0 0.1 0 0.3 0.2 0.3l1.4 0.4c0.1 0 0.3 0 0.3-0.2l0.5-1.6c0-0.1 0-0.3-0.2-0.3L743.1 231.4z"/></g></g></g><path id="XMLID_102_" opacity="0.17" fill="#F2F2F2" d="M782.4 175l-46.3 14 8.1-25.9c0 0 0.5-0.9 1.3-0.7 0.8 0.2 36.3 11.3 36.3 11.3S782.7 174.1 782.4 175z"/></g><g id="XMLID_62_" display="none"><g id="XMLID_91_" display="inline"><path id="XMLID_2_" fill="#414654" d="M761.4 305.7l-33.1 9.4c-0.9 0.2-1.8-0.3-2-1.1l-5.6-19.6c-0.2-0.9 0.3-1.8 1.1-2l33.1-9.4c0.9-0.2 1.8 0.3 2 1.1l5.6 19.6C762.7 304.6 762.2 305.5 761.4 305.7z"/><rect id="XMLID_97_" x="721.2" y="290.9" transform="matrix(0.9617 -0.2742 0.2742 0.9617 -52.1739 214.1964)" fill="#2C2E3A" width="37.7" height="5.6"/><rect id="XMLID_96_" x="723.9" y="299.7" transform="matrix(0.9617 -0.2742 0.2742 0.9617 -54.645 215.2901)" fill="#E9E9EA" width="37.7" height="6.8"/><rect id="XMLID_95_" x="744.9" y="301" transform="matrix(0.9617 -0.2742 0.2742 0.9617 -54.0433 216.6585)" fill="#2C2E3A" width="6.1" height="1.3"/><rect id="XMLID_94_" x="752.9" y="298.9" transform="matrix(0.9617 -0.2742 0.2742 0.9617 -53.2005 218.5449)" fill="#2C2E3A" width="4.4" height="1.3"/><rect id="XMLID_93_" x="721.4" y="289.2" transform="matrix(0.9617 -0.2742 0.2742 0.9617 -51.0977 213.2897)" fill="#2C2E3A" width="31.9" height="0.3"/><rect id="XMLID_92_" x="727" y="308.8" transform="matrix(0.9617 -0.2742 0.2742 0.9617 -56.2921 215.4501)" fill="#2C2E3A" width="30.9" height="0.6"/></g><g id="XMLID_63_" display="inline"><g id="XMLID_86_"><g id="XMLID_361_"><path id="XMLID_362_" fill="#414654" d="M751.2 335.9L718.6 321c-0.8-0.4-1.2-1.3-0.8-2.2l8.9-19.4c0.4-0.8 1.3-1.2 2.2-0.8l32.6 14.9c0.8 0.4 1.2 1.3 0.8 2.2l-8.9 19.4C753 335.9 752 336.3 751.2 335.9z"/></g></g><g id="XMLID_83_"><circle id="XMLID_85_" fill="#F9D93D" cx="746.3" cy="329.1" r="3"/><circle id="XMLID_84_" fill="#E84B3D" cx="750" cy="330.8" r="3"/></g><rect id="XMLID_82_" x="717.7" y="320.6" transform="matrix(0.9096 0.4156 -0.4156 0.9096 199.8029 -274.4541)" fill="#2C2E3A" width="25.6" height="2.6"/><rect id="XMLID_81_" x="723.3" y="306.7" transform="matrix(0.9096 0.4155 -0.4155 0.9096 196.4412 -280.5638)" fill="#F3F3F3" width="39.1" height="8.7"/><g id="XMLID_65_"><path id="XMLID_79_" fill="#2C2E3A" d="M737.4 308.8l-0.8-0.3 -0.3 0.7 0.7 0.3 0.2-0.3 0.3 0.2 -0.3 0.8 -2-0.9 0.1-0.3 0.3 0 0.8-1.8 -0.2-0.2 0.1-0.3 0.9 0.4 1.1 0.5 -0.3 0.7 -0.3-0.2 0-0.3 -0.6-0.3 -0.3 0.6 0.8 0.3L737.4 308.8z"/><path id="XMLID_77_" fill="#2C2E3A" d="M739 310l-1.1-0.5 0.2-0.5 1.1 0.5L739 310z"/><path id="XMLID_75_" fill="#2C2E3A" d="M741.8 309.6c0 0-0.2-0.1-0.4-0.3 -0.4-0.2-0.8 0-1 0.6 -0.3 0.6-0.2 1 0.2 1.2 0.4 0.2 0.8 0.1 0.8 0.1l0.1 0.4c0 0-0.6 0.2-1.2 0 -0.8-0.4-1-1-0.6-1.9 0.4-0.9 1.1-1.2 1.9-0.8 0.5 0.2 0.8 0.6 0.8 0.6l-0.3 0.7 -0.4-0.2L741.8 309.6z"/><path id="XMLID_72_" fill="#2C2E3A" d="M744.1 313.3l-1.2-0.5 0.1-0.3 0.3 0 0-0.3 -0.8-0.4 -0.2 0.2 0.2 0.2 -0.1 0.3 -1.1-0.5 0.1-0.3 0.3 0 1.8-1.8 0.6 0.3 -0.2 2.6 0.2 0.2L744.1 313.3zM743.6 310.6l-0.7 0.8 0.6 0.3L743.6 310.6z"/><path id="XMLID_69_" fill="#2C2E3A" d="M744.4 313l0.3 0 0.8-1.8 -0.2-0.2 0.1-0.3 0.9 0.4 0.3 0.1c0.6 0.3 0.9 0.7 0.6 1.2 -0.2 0.4-0.4 0.5-0.8 0.5 0 0.1 0 0.2 0 0.3l0 0.6 0.2 0.2 -0.1 0.3 -0.7-0.3 0-0.8c0-0.3 0-0.4-0.2-0.5l-0.1-0.1 -0.3 0.6 0.2 0.2 -0.1 0.3 -1.1-0.5L744.4 313zM746 312.4c0.3 0.1 0.5 0.1 0.7-0.2 0.1-0.2 0-0.4-0.2-0.5l-0.3-0.1 -0.4 0.8L746 312.4z"/><path id="XMLID_66_" fill="#2C2E3A" d="M748.1 312.4l-0.2-0.2 0.1-0.3 0.9 0.4 0.4 0.2c0.8 0.3 1 1 0.6 1.8 -0.4 0.9-1.1 1.1-1.9 0.8l-1.2-0.5 0.1-0.3 0.3 0L748.1 312.4zM748.2 314.6c0.4 0.2 0.7 0.1 1-0.6 0.3-0.6 0.2-1-0.2-1.1l-0.3-0.2 -0.8 1.8L748.2 314.6z"/></g><rect id="XMLID_64_" x="720.5" y="318.4" transform="matrix(0.9096 0.4155 -0.4155 0.9096 199.3911 -278.3304)" fill="#D3D2D2" width="37.5" height="1.1"/></g></g><g id="XMLID_152_"><g id="XMLID_154_"><rect id="XMLID_228_" x="425.5" y="246.2" transform="matrix(0.9932 -0.1161 0.1161 0.9932 -29.0159 66.4227)" fill="#F9F9F9" width="260.9" height="72.3"/><g id="XMLID_156_"><rect id="XMLID_227_" x="484.8" y="302.6" transform="matrix(0.9932 -0.1161 0.1161 0.9932 -32.4079 62.3548)" fill="#CCCBCB" width="68.9" height="13.8"/><rect id="XMLID_226_" x="466.7" y="307.8" transform="matrix(0.9932 -0.1161 0.1161 0.9932 -33.3157 57.1999)" fill="#CCCBCB" width="15.6" height="13.8"/><rect id="XMLID_225_" x="451.9" y="309.7" transform="matrix(0.9932 -0.1161 0.1161 0.9932 -33.6491 55.3015)" fill="#CCCBCB" width="12.3" height="13.8"/><rect id="XMLID_224_" x="435.4" y="311.5" transform="matrix(0.9932 -0.1161 0.1161 0.9932 -33.9686 53.5058)" fill="#CCCBCB" width="14.1" height="13.8"/><rect id="XMLID_223_" x="587.8" y="293.9" transform="matrix(0.9932 -0.1161 0.1161 0.9932 -30.9072 70.8748)" fill="#CCCBCB" width="10.8" height="13.8"/><g id="XMLID_220_"><rect id="XMLID_222_" x="600.7" y="292.6" transform="matrix(0.9932 -0.1161 0.1161 0.9932 -30.6836 72.1563)" fill="#CCCBCB" width="7" height="13.8"/><rect id="XMLID_221_" x="620.2" y="290.4" transform="matrix(0.9932 -0.1161 0.1161 0.9932 -30.2852 74.393)" fill="#CCCBCB" width="7" height="13.8"/></g><rect id="XMLID_219_" x="572.9" y="295.6" transform="matrix(0.9932 -0.1161 0.1161 0.9932 -31.1909 69.2473)" fill="#CCCBCB" width="12.3" height="13.8"/><g id="XMLID_216_"><rect id="XMLID_218_" x="609.5" y="291.5" transform="matrix(0.9932 -0.1161 0.1161 0.9932 -30.0019 73.187)" fill="#CCCBCB" width="8" height="5.4"/><rect id="XMLID_217_" x="610.5" y="299.9" transform="matrix(0.9932 -0.1161 0.1161 0.9932 -30.9648 73.3568)" fill="#CCCBCB" width="8" height="5.4"/></g><rect id="XMLID_215_" x="556.4" y="297.4" transform="matrix(0.9932 -0.1161 0.1161 0.9932 -31.5101 67.4525)" fill="#CCCBCB" width="14.1" height="13.8"/><g id="XMLID_201_"><rect id="XMLID_214_" x="456.3" y="291.2" transform="matrix(0.9932 -0.1161 0.1161 0.9932 -31.478 55.5882)" fill="#CCCBCB" width="10.6" height="13.8"/><rect id="XMLID_213_" x="433.3" y="293.3" transform="matrix(0.9932 -0.1161 0.1161 0.9932 -31.8511 53.4779)" fill="#CCCBCB" width="19.9" height="13.8"/><rect id="XMLID_212_" x="469.6" y="289.7" transform="matrix(0.9932 -0.1161 0.1161 0.9932 -31.2085 57.1152)" fill="#CCCBCB" width="10.6" height="13.8"/><rect id="XMLID_211_" x="482.8" y="288.1" transform="matrix(0.9932 -0.1161 0.1161 0.9932 -30.9395 58.6434)" fill="#CCCBCB" width="10.6" height="13.8"/><rect id="XMLID_210_" x="496.1" y="286.6" transform="matrix(0.9932 -0.1161 0.1161 0.9932 -30.6702 60.171)" fill="#CCCBCB" width="10.6" height="13.8"/><rect id="XMLID_209_" x="509.3" y="285" transform="matrix(0.9932 -0.1161 0.1161 0.9932 -30.4031 61.7037)" fill="#CCCBCB" width="10.6" height="13.8"/><rect id="XMLID_208_" x="522.6" y="283.5" transform="matrix(0.9932 -0.1161 0.1161 0.9932 -30.1317 63.2262)" fill="#CCCBCB" width="10.6" height="13.8"/><rect id="XMLID_207_" x="535.8" y="281.9" transform="matrix(0.9932 -0.1161 0.1161 0.9932 -29.8624 64.7538)" fill="#CCCBCB" width="10.6" height="13.8"/><rect id="XMLID_206_" x="549.1" y="280.4" transform="matrix(0.9932 -0.1161 0.1161 0.9932 -29.5934 66.282)" fill="#CCCBCB" width="10.6" height="13.8"/><rect id="XMLID_205_" x="562.4" y="278.8" transform="matrix(0.9932 -0.1161 0.1161 0.9932 -29.3241 67.8096)" fill="#CCCBCB" width="10.6" height="13.8"/><rect id="XMLID_204_" x="575.6" y="277.3" transform="matrix(0.9932 -0.1161 0.1161 0.9932 -29.0568 69.343)" fill="#CCCBCB" width="10.6" height="13.8"/><rect id="XMLID_203_" x="588.9" y="275.7" transform="matrix(0.9932 -0.1161 0.1161 0.9932 -28.7851 70.8636)" fill="#CCCBCB" width="10.6" height="13.8"/><rect id="XMLID_202_" x="602.1" y="274.2" transform="matrix(0.9932 -0.1161 0.1161 0.9932 -28.5178 72.3972)" fill="#CCCBCB" width="10.6" height="13.8"/></g><g id="XMLID_186_"><rect id="XMLID_200_" x="447.6" y="274.1" transform="matrix(0.9932 -0.1161 0.1161 0.9932 -29.5553 54.4623)" fill="#CCCBCB" width="10.6" height="13.8"/><rect id="XMLID_199_" x="431.3" y="275.9" transform="matrix(0.9932 -0.1161 0.1161 0.9932 -29.8581 52.746)" fill="#CCCBCB" width="13.5" height="13.8"/><rect id="XMLID_198_" x="460.9" y="272.6" transform="matrix(0.9932 -0.1161 0.1161 0.9932 -29.2876 55.9934)" fill="#CCCBCB" width="10.6" height="13.8"/><rect id="XMLID_197_" x="474.1" y="271" transform="matrix(0.9932 -0.1161 0.1161 0.9932 -29.0162 57.5163)" fill="#CCCBCB" width="10.6" height="13.8"/><rect id="XMLID_196_" x="487.4" y="269.5" transform="matrix(0.9932 -0.1161 0.1161 0.9932 -28.7472 59.0445)" fill="#CCCBCB" width="10.6" height="13.8"/><rect id="XMLID_195_" x="500.6" y="267.9" transform="matrix(0.9932 -0.1161 0.1161 0.9932 -28.4779 60.5721)" fill="#CCCBCB" width="10.6" height="13.8"/><rect id="XMLID_194_" x="513.9" y="266.4" transform="matrix(0.9932 -0.1161 0.1161 0.9932 -28.2086 62.0997)" fill="#CCCBCB" width="10.6" height="13.8"/><rect id="XMLID_193_" x="527.1" y="264.8" transform="matrix(0.9932 -0.1161 0.1161 0.9932 -27.9394 63.6273)" fill="#CCCBCB" width="10.6" height="13.8"/><rect id="XMLID_192_" x="540.4" y="263.3" transform="matrix(0.9932 -0.1161 0.1161 0.9932 -27.6703 65.1555)" fill="#CCCBCB" width="10.6" height="13.8"/><rect id="XMLID_191_" x="553.6" y="261.7" transform="matrix(0.9932 -0.1161 0.1161 0.9932 -27.4029 66.6886)" fill="#CCCBCB" width="10.6" height="13.8"/><rect id="XMLID_190_" x="566.9" y="260.2" transform="matrix(0.9932 -0.1161 0.1161 0.9932 -27.1318 68.2107)" fill="#CCCBCB" width="10.6" height="13.8"/><rect id="XMLID_189_" x="580.1" y="258.6" transform="matrix(0.9932 -0.1161 0.1161 0.9932 -26.8621 69.737)" fill="#CCCBCB" width="10.6" height="13.8"/><rect id="XMLID_188_" x="593.4" y="257.1" transform="matrix(0.9932 -0.1161 0.1161 0.9932 -26.5928 71.2646)" fill="#CCCBCB" width="10.6" height="13.8"/><polygon id="XMLID_187_" fill="#CCCBCB" points="615 255.1 611.7 255.5 605.4 256.3 607.1 270 613.3 269.3 615.4 287.1 625.9 285.9 622.2 254.3 "/></g><rect id="XMLID_185_" x="627.2" y="253.1" transform="matrix(0.9932 -0.1161 0.1161 0.9932 -25.9071 75.1568)" fill="#CCCBCB" width="10.6" height="13.8"/><rect id="XMLID_184_" x="640.4" y="251.6" transform="matrix(0.9932 -0.1161 0.1161 0.9932 -25.6378 76.6844)" fill="#CCCBCB" width="10.6" height="13.8"/><rect id="XMLID_183_" x="653.7" y="250" transform="matrix(0.9932 -0.1161 0.1161 0.9932 -25.3702 78.2184)" fill="#CCCBCB" width="10.6" height="13.8"/><rect id="XMLID_182_" x="668.2" y="261.6" transform="matrix(0.9932 -0.1161 0.1161 0.9932 -26.4207 79.9606)" fill="#CCCBCB" width="10.6" height="10.4"/><rect id="XMLID_181_" x="666.6" y="248.5" transform="matrix(0.9932 -0.1161 0.1161 0.9932 -24.9096 79.6998)" fill="#CCCBCB" width="10.6" height="10.4"/><rect id="XMLID_180_" x="670.4" y="274.4" transform="matrix(0.9932 -0.1161 0.1161 0.9932 -28.6542 80.3543)" fill="#CCCBCB" width="10.6" height="23.7"/><rect id="XMLID_179_" x="629.2" y="271" transform="matrix(0.9932 -0.1161 0.1161 0.9932 -27.9647 75.5195)" fill="#CCCBCB" width="10.6" height="13.8"/><rect id="XMLID_178_" x="642.5" y="269.4" transform="matrix(0.9932 -0.1161 0.1161 0.9932 -27.6955 77.0471)" fill="#CCCBCB" width="10.6" height="13.8"/><rect id="XMLID_177_" x="655.8" y="267.9" transform="matrix(0.9932 -0.1161 0.1161 0.9932 -27.4262 78.5747)" fill="#CCCBCB" width="10.6" height="13.8"/><rect id="XMLID_176_" x="631.3" y="288.8" transform="matrix(0.9932 -0.1161 0.1161 0.9932 -30.0225 75.8823)" fill="#CCCBCB" width="10.6" height="13.8"/><rect id="XMLID_175_" x="644.6" y="287.3" transform="matrix(0.9932 -0.1161 0.1161 0.9932 -29.7532 77.4099)" fill="#CCCBCB" width="10.6" height="13.8"/><rect id="XMLID_174_" x="657.8" y="285.8" transform="matrix(0.9932 -0.1161 0.1161 0.9932 -29.4859 78.944)" fill="#CCCBCB" width="10.6" height="13.8"/><g id="XMLID_157_"><rect id="XMLID_173_" x="429.8" y="266.6" transform="matrix(0.9932 -0.1161 0.1161 0.9932 -28.3808 52.4856)" fill="#CCCBCB" width="13.5" height="6.8"/><rect id="XMLID_172_" x="445.3" y="264.8" transform="matrix(0.9932 -0.1161 0.1161 0.9932 -28.0651 54.2752)" fill="#CCCBCB" width="13.5" height="6.8"/><rect id="XMLID_171_" x="460.8" y="263" transform="matrix(0.9932 -0.1161 0.1161 0.9932 -27.7497 56.0656)" fill="#CCCBCB" width="13.5" height="6.8"/><rect id="XMLID_170_" x="476.4" y="261.1" transform="matrix(0.9932 -0.1161 0.1161 0.9932 -27.4342 57.8556)" fill="#CCCBCB" width="13.5" height="6.8"/><rect id="XMLID_169_" x="491.9" y="259.3" transform="matrix(0.9932 -0.1161 0.1161 0.9932 -27.1183 59.6447)" fill="#CCCBCB" width="13.5" height="6.8"/><rect id="XMLID_168_" x="507.4" y="257.5" transform="matrix(0.9932 -0.1161 0.1161 0.9932 -26.8032 61.4356)" fill="#CCCBCB" width="13.5" height="6.8"/><rect id="XMLID_167_" x="523" y="255.7" transform="matrix(0.9932 -0.1161 0.1161 0.9932 -26.4875 63.225)" fill="#CCCBCB" width="13.5" height="6.8"/><rect id="XMLID_166_" x="538.5" y="253.9" transform="matrix(0.9932 -0.1161 0.1161 0.9932 -26.1722 65.0156)" fill="#CCCBCB" width="13.5" height="6.8"/><rect id="XMLID_165_" x="554" y="252.1" transform="matrix(0.9932 -0.1161 0.1161 0.9932 -25.8566 66.8056)" fill="#CCCBCB" width="13.5" height="6.8"/><rect id="XMLID_164_" x="569.5" y="250.2" transform="matrix(0.9932 -0.1161 0.1161 0.9932 -25.5421 68.599)" fill="#CCCBCB" width="13.5" height="6.8"/><rect id="XMLID_163_" x="585.1" y="248.4" transform="matrix(0.9932 -0.1161 0.1161 0.9932 -25.2256 70.3856)" fill="#CCCBCB" width="13.5" height="6.8"/><rect id="XMLID_162_" x="600.6" y="246.6" transform="matrix(0.9932 -0.1161 0.1161 0.9932 -24.91 72.1756)" fill="#CCCBCB" width="13.5" height="6.8"/><rect id="XMLID_161_" x="616.1" y="244.8" transform="matrix(0.9932 -0.1161 0.1161 0.9932 -24.5945 73.9656)" fill="#CCCBCB" width="13.5" height="6.8"/><rect id="XMLID_160_" x="631.7" y="243" transform="matrix(0.9932 -0.1161 0.1161 0.9932 -24.279 75.7555)" fill="#CCCBCB" width="13.5" height="6.8"/><rect id="XMLID_159_" x="647.2" y="241.2" transform="matrix(0.9932 -0.1161 0.1161 0.9932 -23.9633 77.545)" fill="#CCCBCB" width="13.5" height="6.8"/><rect id="XMLID_158_" x="662.7" y="239.4" transform="matrix(0.9932 -0.1161 0.1161 0.9932 -23.6479 79.3354)" fill="#CCCBCB" width="13.5" height="6.8"/></g></g><rect id="XMLID_155_" x="429.8" y="318.2" transform="matrix(0.9932 -0.1161 0.1161 0.9932 -33.3438 67.1854)" fill="#D8D8D8" width="260.9" height="3.4"/></g><rect id="XMLID_153_" x="421.2" y="243.3" transform="matrix(0.9932 -0.1161 0.1161 0.9932 -24.7795 65.6799)" fill="#E7E7E8" width="260.9" height="4.7"/></g></g><g id="XMLID_49_" display="none" clip-path="url(#XMLID_99_)"><g id="XMLID_56_" display="inline"><path id="XMLID_60_" fill="none" stroke="#515566" stroke-miterlimit="10" d="M167.5 280.2H85.8c-3.2 0-5.8-2.6-5.8-5.8v-21.5c0-3.2 2.6-5.8 5.8-5.8h81.7c3.2 0 5.8 2.6 5.8 5.8v21.5C173.3 277.6 170.7 280.2 167.5 280.2z"/><g id="XMLID_57_"><text id="XMLID_384_" transform="matrix(1 0 0 1 99.5944 267.5874)" fill="#515566" font-family="'Quicksand-Regular'" font-size="10">LEARN MORE</text></g></g><g id="XMLID_50_" display="inline"><rect id="XMLID_1_" x="36.4" y="101.2" fill="none" width="180.6" height="132"/><text id="XMLID_54_" transform="matrix(1 0 0 1 36.3852 107.5961)"><tspan x="0" y="0" fill="#9B9B9B" font-family="'Quicksand-Light'" font-size="9">Claritas</tspan><tspan x="26.9" y="0" fill="#9B9B9B" font-family="'Quicksand-Light'" font-size="9" letter-spacing="4"/><tspan x="33.3" y="0" fill="#9B9B9B" font-family="'Quicksand-Light'" font-size="9">est</tspan><tspan x="44" y="0" fill="#9B9B9B" font-family="'Quicksand-Light'" font-size="9" letter-spacing="4"/><tspan x="50.4" y="0" fill="#9B9B9B" font-family="'Quicksand-Light'" font-size="9">etiam</tspan><tspan x="71.4" y="0" fill="#9B9B9B" font-family="'Quicksand-Light'" font-size="9" letter-spacing="4"/><tspan x="77.7" y="0" fill="#9B9B9B" font-family="'Quicksand-Light'" font-size="9">processus</tspan><tspan x="114.1" y="0" fill="#9B9B9B" font-family="'Quicksand-Light'" font-size="9" letter-spacing="4"/><tspan x="120.5" y="0" fill="#9B9B9B" font-family="'Quicksand-Light'" font-size="9">dynamicus,</tspan><tspan x="162.3" y="0" fill="#9B9B9B" font-family="'Quicksand-Light'" font-size="9" letter-spacing="4"/><tspan x="168.6" y="0" fill="#9B9B9B" font-family="'Quicksand-Light'" font-size="9">qui </tspan><tspan x="0" y="15.3" fill="#9B9B9B" font-family="'Quicksand-Light'" font-size="9">sequitur</tspan><tspan x="30.4" y="15.3" fill="#9B9B9B" font-family="'Quicksand-Light'" font-size="9" letter-spacing="3"/><tspan x="35.6" y="15.3" fill="#9B9B9B" font-family="'Quicksand-Light'" font-size="9">mutationem</tspan><tspan x="81.5" y="15.3" fill="#9B9B9B" font-family="'Quicksand-Light'" font-size="9" letter-spacing="3"/><tspan x="86.7" y="15.3" fill="#9B9B9B" font-family="'Quicksand-Light'" font-size="9">consuetudium</tspan><tspan x="140.2" y="15.3" fill="#9B9B9B" font-family="'Quicksand-Light'" font-size="9" letter-spacing="3"/><tspan x="145.5" y="15.3" fill="#9B9B9B" font-family="'Quicksand-Light'" font-size="9">lectorum. </tspan><tspan x="0" y="30.6" fill="#9B9B9B" font-family="'Quicksand-Light'" font-size="9">Mirum</tspan><tspan x="24.3" y="30.6" fill="#9B9B9B" font-family="'Quicksand-Light'" font-size="9" letter-spacing="1"/><tspan x="27.6" y="30.6" fill="#9B9B9B" font-family="'Quicksand-Light'" font-size="9">est</tspan><tspan x="38.4" y="30.6" fill="#9B9B9B" font-family="'Quicksand-Light'" font-size="9" letter-spacing="1"/><tspan x="41.7" y="30.6" fill="#9B9B9B" font-family="'Quicksand-Light'" font-size="9">notare</tspan><tspan x="65.8" y="30.6" fill="#9B9B9B" font-family="'Quicksand-Light'" font-size="9" letter-spacing="1"/><tspan x="69.1" y="30.6" fill="#9B9B9B" font-family="'Quicksand-Light'" font-size="9">quam</tspan><tspan x="90.6" y="30.6" fill="#9B9B9B" font-family="'Quicksand-Light'" font-size="9" letter-spacing="1"/><tspan x="93.9" y="30.6" fill="#9B9B9B" font-family="'Quicksand-Light'" font-size="9">litteraClaritas</tspan><tspan x="142.2" y="30.6" fill="#9B9B9B" font-family="'Quicksand-Light'" font-size="9" letter-spacing="1"/><tspan x="145.4" y="30.6" fill="#9B9B9B" font-family="'Quicksand-Light'" font-size="9">est</tspan><tspan x="156.2" y="30.6" fill="#9B9B9B" font-family="'Quicksand-Light'" font-size="9" letter-spacing="1"/><tspan x="159.5" y="30.6" fill="#9B9B9B" font-family="'Quicksand-Light'" font-size="9">etiam </tspan><tspan x="0" y="45.9" fill="#9B9B9B" font-family="'Quicksand-Light'" font-size="9">processus</tspan><tspan x="36.4" y="45.9" fill="#9B9B9B" font-family="'Quicksand-Light'" font-size="9" letter-spacing="1"/><tspan x="39.9" y="45.9" fill="#9B9B9B" font-family="'Quicksand-Light'" font-size="9">dynamicus,</tspan><tspan x="81.7" y="45.9" fill="#9B9B9B" font-family="'Quicksand-Light'" font-size="9" letter-spacing="1"/><tspan x="85.3" y="45.9" fill="#9B9B9B" font-family="'Quicksand-Light'" font-size="9">qui</tspan><tspan x="97.1" y="45.9" fill="#9B9B9B" font-family="'Quicksand-Light'" font-size="9" letter-spacing="1"/><tspan x="100.7" y="45.9" fill="#9B9B9B" font-family="'Quicksand-Light'" font-size="9">sequitur</tspan><tspan x="131" y="45.9" fill="#9B9B9B" font-family="'Quicksand-Light'" font-size="9" letter-spacing="1"/><tspan x="134.6" y="45.9" fill="#9B9B9B" font-family="'Quicksand-Light'" font-size="9">mutationem </tspan><tspan x="0" y="61.2" fill="#9B9B9B" font-family="'Quicksand-Light'" font-size="9">consuetudium</tspan><tspan x="53.5" y="61.2" fill="#9B9B9B" font-family="'Quicksand-Light'" font-size="9"/><tspan x="55.7" y="61.2" fill="#9B9B9B" font-family="'Quicksand-Light'" font-size="9">lectorum.</tspan><tspan x="90.8" y="61.2" fill="#9B9B9B" font-family="'Quicksand-Light'" font-size="9"/><tspan x="93" y="61.2" fill="#9B9B9B" font-family="'Quicksand-Light'" font-size="9">Mirum</tspan><tspan x="117.3" y="61.2" fill="#9B9B9B" font-family="'Quicksand-Light'" font-size="9"/><tspan x="119.6" y="61.2" fill="#9B9B9B" font-family="'Quicksand-Light'" font-size="9">est</tspan><tspan x="130.3" y="61.2" fill="#9B9B9B" font-family="'Quicksand-Light'" font-size="9"/><tspan x="132.6" y="61.2" fill="#9B9B9B" font-family="'Quicksand-Light'" font-size="9">notare</tspan><tspan x="156.8" y="61.2" fill="#9B9B9B" font-family="'Quicksand-Light'" font-size="9"/><tspan x="159" y="61.2" fill="#9B9B9B" font-family="'Quicksand-Light'" font-size="9">quam </tspan><tspan x="0" y="76.5" fill="#9B9B9B" font-family="'Quicksand-Light'" font-size="9">litteraClaritas</tspan><tspan x="48.2" y="76.5" fill="#9B9B9B" font-family="'Quicksand-Light'" font-size="9"/><tspan x="50.3" y="76.5" fill="#9B9B9B" font-family="'Quicksand-Light'" font-size="9">est</tspan><tspan x="61.1" y="76.5" fill="#9B9B9B" font-family="'Quicksand-Light'" font-size="9"/><tspan x="63.2" y="76.5" fill="#9B9B9B" font-family="'Quicksand-Light'" font-size="9">etiam</tspan><tspan x="84.2" y="76.5" fill="#9B9B9B" font-family="'Quicksand-Light'" font-size="9"/><tspan x="86.3" y="76.5" fill="#9B9B9B" font-family="'Quicksand-Light'" font-size="9">processus</tspan><tspan x="122.7" y="76.5" fill="#9B9B9B" font-family="'Quicksand-Light'" font-size="9"/><tspan x="124.8" y="76.5" fill="#9B9B9B" font-family="'Quicksand-Light'" font-size="9">dynamicus,</tspan><tspan x="166.5" y="76.5" fill="#9B9B9B" font-family="'Quicksand-Light'" font-size="9"/><tspan x="168.6" y="76.5" fill="#9B9B9B" font-family="'Quicksand-Light'" font-size="9">qui </tspan><tspan x="0" y="91.8" fill="#9B9B9B" font-family="'Quicksand-Light'" font-size="9">sequitur</tspan><tspan x="30.4" y="91.8" fill="#9B9B9B" font-family="'Quicksand-Light'" font-size="9" letter-spacing="2"/><tspan x="34.3" y="91.8" fill="#9B9B9B" font-family="'Quicksand-Light'" font-size="9">mutationem</tspan><tspan x="80.2" y="91.8" fill="#9B9B9B" font-family="'Quicksand-Light'" font-size="9" letter-spacing="2"/><tspan x="84.1" y="91.8" fill="#9B9B9B" font-family="'Quicksand-Light'" font-size="9">consuetudium</tspan><tspan x="137.6" y="91.8" fill="#9B9B9B" font-family="'Quicksand-Light'" font-size="9" letter-spacing="2"/><tspan x="145.5" y="91.8" fill="#9B9B9B" font-family="'Quicksand-Light'" font-size="9">lectorum.  </tspan><tspan x="0" y="107.1" fill="#9B9B9B" font-family="'Quicksand-Light'" font-size="9">Mirum  est </tspan></text><g id="XMLID_51_"><text id="XMLID_385_" transform="matrix(1 0 0 1 36.3852 84.7979)"><tspan x="0" y="0" fill="#414654" font-family="'Quicksand-Light'" font-size="17.68">WEB </tspan><tspan x="37" y="0" fill="#414654" font-family="'Quicksand-Bold'" font-size="17.68">DESIGNER</tspan></text></g></g></g></g><g id="XMLID_8_" opacity="0.4"><g id="XMLID_16_" enable-background="new    "><g id="XMLID_45_"><polygon id="XMLID_46_" fill="#FFFFFF" points="503.8 140 505 147.9 422.6 148.4 418.5 140.5 "/></g><g id="XMLID_35_"><polygon id="XMLID_44_" fill="#FFFFFF" points="595.8 133.6 595.3 135.5 416.3 136.5 415.4 134.6 "/></g><g id="XMLID_33_"><polygon id="XMLID_34_" fill="#FFFFFF" points="597.3 127 596.8 129 412.9 130 411.9 128 "/></g><g id="XMLID_29_"><polygon id="XMLID_32_" fill="#FFFFFF" points="598.9 120 598.4 122.1 409.3 123.1 408.2 121.1 "/></g><g id="XMLID_27_"><polygon id="XMLID_28_" fill="#FFFFFF" points="671.7 116.6 656.1 147.1 600.4 147.4 608.5 117 "/></g><g id="XMLID_25_"><polygon id="XMLID_26_" fill="#FFFFFF" points="600.6 112.6 600.1 114.9 405.5 115.9 404.4 113.7 "/></g><g id="XMLID_21_"><polygon id="XMLID_24_" fill="#FFFFFF" points="606.3 87.7 605.7 90.3 392.7 91.5 391.3 88.8 "/></g><g id="XMLID_18_"><polygon id="XMLID_20_" fill="#FFFFFF" points="686.8 87.2 673.4 113.4 609.3 113.7 616.3 87.6 "/></g></g><g id="XMLID_11_"><polygon id="XMLID_14_" fill="#FFFFFF" points="602.4 104.8 601.8 107.2 401.5 108.3 400.3 105.9 "/></g><g id="XMLID_9_"><polygon id="XMLID_10_" fill="#FFFFFF" points="604.3 96.5 603.7 99 397.2 100.1 395.9 97.6 "/></g></g></svg>