<?xml version="1.0" encoding="UTF-8" ?>
<!DOCTYPE svg PUBLIC "-//W3C//DTD SVG 1.1//EN" "http://www.w3.org/Graphics/SVG/1.1/DTD/svg11.dtd">
<svg width="900pt" height="910pt" viewBox="0 0 900 910" version="1.1" xmlns="http://www.w3.org/2000/svg">
<path fill="#fefeff" d=" M 0.00 0.00 L 900.00 0.00 L 900.00 910.00 L 0.00 910.00 L 0.00 0.00 Z" />
<path fill="#06b4e4" d=" M 236.28 57.25 C 267.52 39.30 298.61 21.09 329.93 3.30 C 345.79 12.45 361.62 21.65 377.43 30.90 C 377.41 134.94 377.42 238.98 377.42 343.02 C 377.47 357.05 377.03 371.14 378.87 385.08 C 383.64 425.59 402.03 464.28 430.21 493.74 C 460.86 526.10 503.18 547.49 547.60 551.89 C 554.21 537.10 560.22 521.94 563.78 506.10 C 569.01 484.47 568.96 462.09 568.81 439.99 C 568.80 331.28 568.82 222.57 568.80 113.87 C 604.05 93.42 639.40 73.14 674.70 52.77 C 703.45 36.33 731.98 19.47 760.87 3.30 C 776.73 12.44 792.53 21.69 808.44 30.72 C 808.68 119.79 808.48 208.88 808.54 297.96 C 808.45 321.96 808.75 345.97 808.38 369.97 C 806.67 429.82 781.10 488.46 738.65 530.63 C 725.48 544.07 710.52 555.67 694.60 565.67 C 627.56 604.23 560.64 643.02 493.65 681.67 C 479.22 690.07 464.46 698.05 448.81 703.97 C 404.64 721.16 355.78 725.88 309.09 717.84 C 271.47 711.48 235.34 696.64 204.00 674.88 C 174.78 654.63 149.69 628.43 130.79 598.31 C 106.07 559.15 92.06 513.32 90.68 467.03 C 90.27 453.67 90.53 440.31 90.46 426.95 C 90.46 331.80 90.47 236.64 90.45 141.48 C 139.04 113.37 187.68 85.34 236.28 57.25 Z" />
<path fill="#fefeff" d=" M 138.89 169.07 C 202.67 132.29 266.34 95.31 330.17 58.62 C 330.26 159.06 330.19 259.51 330.21 359.95 C 330.14 383.22 333.21 406.53 339.76 428.88 C 351.04 467.94 372.58 503.96 401.56 532.46 C 433.66 564.29 475.03 586.54 519.23 595.99 C 494.82 625.84 461.90 648.59 425.59 661.47 C 380.94 677.33 331.00 677.84 286.09 662.71 C 249.21 650.48 215.88 627.90 190.66 598.37 C 163.52 566.83 145.84 527.24 140.68 485.95 C 139.10 474.38 138.79 462.70 138.86 451.04 C 138.88 357.05 138.84 263.06 138.89 169.07 Z" />
<path fill="#fefeff" d=" M 617.26 141.28 C 664.95 113.90 712.38 86.06 760.02 58.59 C 760.11 157.70 760.03 256.82 760.06 355.93 C 760.49 378.96 757.28 402.12 749.71 423.91 C 736.98 461.49 711.90 494.46 680.00 517.88 C 656.25 534.67 628.59 545.84 599.94 550.77 C 606.98 531.08 612.49 510.77 615.03 489.98 C 618.19 466.80 616.83 443.35 617.13 420.03 C 617.13 356.68 617.13 293.32 617.13 229.97 C 617.22 200.41 616.95 170.84 617.26 141.28 Z" />
<path fill="#3e4c58" d=" M 459.23 817.26 C 477.86 800.38 509.11 800.85 527.82 817.30 C 527.17 820.09 524.39 822.25 522.93 824.79 C 511.64 815.49 495.84 811.51 481.64 815.42 C 471.48 818.15 462.68 825.34 457.86 834.69 C 447.68 853.88 453.65 880.79 472.61 892.23 C 489.05 902.49 511.57 898.05 525.05 884.85 C 527.15 886.98 528.93 889.40 530.83 891.72 C 518.81 903.72 500.81 909.17 484.12 906.26 C 473.64 904.56 463.74 899.32 456.54 891.50 C 437.49 871.41 438.16 835.69 459.23 817.26 Z" />
<path fill="#3e4c58" d=" M 24.00 806.06 C 27.40 806.05 30.79 806.06 34.18 806.07 C 34.24 826.40 34.16 846.73 34.22 867.06 C 34.23 876.03 38.31 885.03 45.50 890.51 C 58.83 901.61 80.59 900.14 92.40 887.44 C 97.42 882.12 100.34 874.90 100.42 867.58 C 100.53 847.06 100.39 826.54 100.52 806.03 C 103.94 806.00 107.37 805.99 110.79 806.09 C 110.77 826.43 110.82 846.76 110.77 867.09 C 110.76 876.53 107.43 886.01 101.04 893.02 C 94.19 900.74 84.28 905.29 74.12 906.53 C 61.48 908.19 47.80 905.44 37.81 897.20 C 29.15 890.17 24.09 879.13 24.00 868.01 C 24.01 847.36 24.00 826.71 24.00 806.06 Z" />
<path fill="#3e4c58" d=" M 177.02 806.05 C 185.01 806.01 193.00 806.06 200.98 806.06 C 210.08 805.95 219.40 806.05 228.10 809.08 C 239.15 812.66 248.70 820.78 253.60 831.36 C 259.34 843.65 260.00 857.96 256.93 871.06 C 254.03 883.51 245.65 894.68 234.04 900.23 C 226.31 904.08 217.63 905.60 209.05 905.68 C 198.39 905.74 187.73 905.65 177.07 905.72 C 176.93 872.50 177.01 839.27 177.02 806.05 Z" />
<path fill="#3e4c58" d=" M 345.02 806.04 C 348.60 806.03 352.17 806.00 355.75 806.09 C 369.07 839.32 382.64 872.45 395.91 905.69 C 392.35 905.37 388.54 906.28 385.14 905.28 C 380.25 893.56 375.65 881.70 370.82 869.94 C 355.94 873.04 341.04 876.07 326.15 879.12 C 322.55 887.94 319.02 896.79 315.49 905.65 C 311.96 905.69 308.43 905.69 304.90 905.71 C 317.98 872.37 331.66 839.26 345.02 806.04 Z" />
<path fill="#3e4c58" d=" M 595.33 806.12 C 598.78 805.98 602.24 805.96 605.69 806.15 C 605.59 839.32 605.70 872.49 605.64 905.66 C 602.21 905.69 598.79 905.69 595.37 905.67 C 595.31 872.48 595.38 839.30 595.33 806.12 Z" />
<path fill="#3e4c58" d=" M 664.21 806.09 C 691.45 805.95 718.70 806.03 745.94 806.05 C 745.98 809.03 745.99 812.02 745.98 815.01 C 734.05 815.08 722.11 814.97 710.18 815.07 C 710.15 845.29 710.30 875.51 710.10 905.73 C 706.74 905.67 703.39 905.69 700.03 905.73 C 699.93 875.50 700.03 845.26 699.98 815.03 C 688.04 814.98 676.11 815.13 664.17 814.96 C 664.21 812.00 664.22 809.04 664.21 806.09 Z" />
<path fill="#3e4c58" d=" M 789.43 806.05 C 793.19 806.04 796.97 805.89 800.74 806.17 C 811.26 821.54 821.91 836.86 832.72 852.03 C 843.12 836.65 853.87 821.52 864.25 806.13 C 867.92 805.94 871.60 806.02 875.28 806.05 C 864.07 823.49 852.38 840.64 840.98 857.96 C 839.69 860.16 837.42 862.15 837.75 864.93 C 837.77 878.51 837.82 892.09 837.77 905.68 C 834.31 905.66 830.84 905.86 827.40 905.51 C 827.63 892.32 827.40 879.12 827.52 865.93 C 827.40 864.64 827.75 863.22 826.98 862.10 C 814.50 843.39 801.83 824.81 789.43 806.05 Z" />
<path fill="#fefeff" d=" M 187.25 815.07 C 197.86 815.32 208.62 814.19 219.11 816.23 C 227.95 818.02 236.30 822.95 241.45 830.45 C 247.57 839.25 249.18 850.41 248.31 860.90 C 247.62 870.49 243.97 880.21 236.74 886.80 C 229.60 893.51 219.67 896.39 210.05 896.69 C 202.46 896.83 194.87 896.67 187.29 896.69 C 187.24 869.49 187.31 842.28 187.25 815.07 Z" />
<path fill="#fefeff" d=" M 330.70 868.07 C 337.24 851.97 343.59 835.77 350.49 819.82 C 355.83 833.51 361.59 847.04 367.02 860.70 C 354.89 863.03 342.82 865.68 330.70 868.07 Z" />
</svg>
